{"glyphs":{"0":{"ha":918,"x_min":34,"x_max":884,"o":"m 459 -14 q 242 60 338 -14 q 90 260 146 135 q 34 538 34 386 q 90 815 34 690 q 242 1016 146 941 q 459 1090 338 1090 q 676 1016 580 1090 q 828 815 772 941 q 884 538 884 690 q 828 260 884 386 q 676 60 772 135 q 459 -14 580 -14 m 459 129 q 600 184 536 129 q 701 332 663 239 q 739 538 739 425 q 701 744 739 651 q 600 892 663 837 q 459 947 536 947 q 318 892 382 947 q 217 744 255 837 q 179 538 179 651 q 217 332 179 425 q 318 184 255 239 q 459 129 382 129 z "},"1":{"ha":450,"x_min":34,"x_max":416,"o":"m 130 -25 l 121 -25 l 119 117 l 183 119 l 183 856 q 73 803 132 820 l 34 941 q 195 1077 126 968 l 328 1038 l 328 130 q 368 139 351 133 l 416 4 q 277 -20 355 -16 q 130 -25 199 -25 z "},"2":{"ha":865,"x_min":34,"x_max":831,"o":"m 100 -45 l 100 -7 l 34 -7 l 34 136 l 100 136 q 138 308 103 227 q 262 449 174 388 q 387 518 312 481 l 392 521 q 591 639 496 574 q 684 768 672 701 q 686 796 686 782 q 673 856 686 827 q 612 929 654 899 q 470 972 554 972 q 258 879 342 972 q 199 695 199 807 l 199 688 l 54 686 l 54 696 q 147 970 54 860 q 268 1066 199 1031 q 469 1114 363 1114 q 592 1096 535 1114 q 695 1046 650 1078 q 806 913 770 993 q 831 796 831 857 q 826 741 831 769 q 677 524 806 623 q 459 395 571 451 l 431 380 q 343 330 377 352 q 272 247 294 296 q 245 136 250 197 l 796 136 l 796 -7 l 244 -7 l 245 -41 l 100 -45 z "},"3":{"ha":852,"x_min":34,"x_max":819,"o":"m 425 -3 q 266 22 344 -3 q 127 103 187 47 q 34 328 34 191 l 34 331 l 178 331 q 191 259 178 290 q 313 157 222 186 q 427 140 368 140 q 546 158 490 140 q 634 210 601 176 q 673 287 667 244 l 674 304 q 651 386 674 345 q 558 474 623 439 q 416 513 500 506 q 351 509 385 509 l 319 510 l 314 652 q 385 656 350 656 l 414 656 q 542 694 492 665 q 618 762 593 722 q 640 832 640 795 q 625 888 640 861 q 555 948 604 925 q 429 971 507 971 l 420 971 q 250 916 319 970 q 190 789 195 874 l 45 795 q 157 1026 53 941 q 429 1114 263 1113 q 574 1094 511 1114 q 681 1039 637 1074 q 751 960 725 1004 q 785 833 785 899 l 785 821 q 740 684 782 750 q 645 589 706 631 q 778 456 734 535 q 819 305 819 382 q 739 111 819 195 q 599 26 683 55 q 425 -3 515 -3 z "},"4":{"ha":918,"x_min":34,"x_max":884,"o":"m 820 -6 l 675 -6 l 675 336 l 34 336 l 34 479 l 88 479 q 191 673 142 570 q 272 885 240 777 q 304 1091 304 992 l 450 1091 q 421 883 450 989 q 348 673 393 776 q 254 479 304 570 l 675 479 l 675 1091 l 820 1091 l 820 479 l 884 479 l 884 336 l 820 336 l 820 -6 z "},"5":{"ha":933,"x_min":34,"x_max":899,"o":"m 477 2 q 244 77 346 3 q 159 173 193 115 q 115 357 115 249 l 260 355 q 262 322 260 339 q 332 191 273 233 q 479 145 395 146 q 516 146 497 145 q 647 188 595 155 q 755 385 753 254 q 732 488 755 439 q 671 567 711 534 q 573 610 631 600 q 498 615 537 615 q 397 608 449 615 q 203 566 298 594 l 111 635 l 111 970 l 34 970 l 34 1114 l 111 1114 l 111 1118 l 256 1118 l 256 1114 l 850 1114 l 850 970 l 256 970 l 256 728 q 497 758 390 758 q 597 751 549 758 q 762 679 694 734 q 864 547 829 625 q 899 385 899 469 l 899 372 q 850 197 897 279 q 729 70 808 121 q 531 5 650 18 q 477 2 505 2 z "},"6":{"ha":888,"x_min":34,"x_max":854,"o":"m 437 -4 q 249 50 332 -4 q 113 193 165 104 q 41 422 53 295 q 39 475 39 448 q 73 672 39 572 l 34 672 l 34 815 l 144 815 q 346 1009 216 924 q 669 1139 475 1095 l 701 999 q 332 815 464 947 l 387 815 q 593 785 502 815 q 775 663 700 752 q 854 454 848 569 l 854 430 q 815 252 854 338 q 686 84 772 153 q 437 -4 583 0 m 449 140 q 595 195 535 146 q 683 309 653 241 q 710 431 710 370 l 709 446 q 663 574 707 517 q 395 672 578 672 l 229 672 q 212 631 218 652 q 184 473 184 551 q 238 266 184 357 q 323 174 272 208 q 437 140 374 140 l 449 140 z "},"7":{"ha":911,"x_min":34,"x_max":878,"o":"m 265 -40 l 138 28 l 637 929 l 34 929 l 34 1073 l 660 1073 l 659 1127 l 804 1127 l 804 1073 l 878 1073 l 878 929 l 801 929 q 265 -40 799 923 z "},"8":{"ha":852,"x_min":34,"x_max":819,"o":"m 420 140 q 509 150 465 140 q 590 181 553 161 q 650 233 627 202 q 673 302 673 263 q 648 386 673 340 q 555 474 619 439 q 422 511 501 505 q 293 475 346 505 q 202 389 231 441 q 180 311 180 349 q 215 219 180 260 q 305 159 249 179 q 420 140 357 140 m 422 -3 l 404 -3 q 256 24 328 -1 q 95 137 155 60 q 34 309 34 213 q 76 458 34 380 q 203 589 118 535 q 105 686 140 631 q 60 823 63 752 l 60 835 q 93 961 60 901 q 162 1040 118 1005 q 269 1094 206 1074 q 412 1114 332 1114 l 433 1114 q 576 1094 513 1114 q 683 1040 639 1074 q 752 961 727 1005 q 785 835 785 901 l 785 823 q 740 686 782 752 q 642 589 705 632 q 774 456 731 534 q 819 302 819 374 q 786 179 819 235 q 698 82 753 123 q 571 19 642 41 q 422 -3 500 -3 m 422 657 q 545 697 496 669 q 618 763 594 725 q 641 834 640 798 q 626 890 641 863 q 558 949 606 926 q 433 971 510 971 l 412 971 q 287 949 335 971 q 219 890 239 926 q 204 834 204 863 q 227 763 205 798 q 300 697 251 725 q 422 657 349 669 z "},"9":{"ha":888,"x_min":34,"x_max":854,"o":"m 219 -2 l 188 138 q 557 321 426 191 l 502 321 q 295 351 387 321 q 113 474 189 385 q 35 683 40 568 l 34 706 q 73 886 34 798 q 202 1053 117 983 q 451 1141 305 1137 q 640 1087 557 1141 q 776 943 723 1034 q 848 715 836 842 q 850 665 850 690 q 816 465 850 566 l 854 465 l 854 321 l 744 321 q 543 127 672 212 q 219 -2 413 42 m 660 465 q 705 661 705 560 q 703 703 705 682 q 650 871 694 798 q 565 963 616 928 q 451 997 514 997 q 293 941 358 995 q 206 828 236 895 q 178 706 178 767 l 179 690 q 226 564 182 619 q 342 487 273 509 q 502 465 408 465 l 660 465 z "},"\u0000":{"ha":68,"x_min":0,"x_max":0,"o":""},"\u001d":{"ha":68,"x_min":0,"x_max":0,"o":""}," ":{"ha":258,"x_min":0,"x_max":0,"o":""}," ":{"ha":258,"x_min":0,"x_max":0,"o":""},"!":{"ha":306,"x_min":34,"x_max":272,"o":"m 179 -157 l 34 -157 l 34 -46 l 179 -46 l 179 -157 m 178 47 l 35 76 q 103 557 81 293 q 126 1069 126 822 l 272 1069 q 248 541 272 816 q 178 47 223 267 z "},"\"":{"ha":494,"x_min":34,"x_max":460,"o":"m 126 730 l 55 854 q 75 928 64 860 l 34 928 l 34 1072 l 230 1072 l 230 928 l 220 928 q 126 730 205 777 m 357 730 l 285 854 q 304 928 294 860 l 264 928 l 264 1072 l 460 1072 l 460 928 l 450 928 q 357 730 435 777 z "},"#":{"ha":1107,"x_min":34,"x_max":1074,"o":"m 1074 610 l 863 610 q 854 500 859 555 q 846 423 850 461 l 1074 423 l 1074 280 l 829 280 q 784 6 810 134 l 642 35 q 684 280 666 151 l 314 280 q 269 6 295 134 l 126 35 q 168 280 151 151 l 34 280 l 34 423 l 185 423 q 195 517 190 469 q 201 610 198 564 l 34 610 l 34 753 l 210 753 q 217 1028 217 893 l 363 1028 q 356 753 363 894 l 726 753 q 732 1028 732 893 l 878 1028 q 871 753 878 894 l 1074 753 l 1074 610 m 331 423 l 701 423 q 710 517 705 469 q 717 610 713 564 l 347 610 q 338 500 343 555 q 331 423 335 461 z "},"$":{"ha":892,"x_min":34,"x_max":858,"o":"m 315 -144 l 193 -66 q 224 -12 209 -42 l 77 -12 l 77 132 l 287 132 q 385 444 340 274 l 159 444 q 107 465 129 444 q 86 516 86 486 l 86 944 l 34 944 l 34 1087 l 532 1087 l 553 1197 l 696 1173 l 680 1087 l 818 1087 l 818 944 l 652 944 q 571 587 620 788 l 785 587 q 837 566 815 587 q 858 516 858 545 l 858 60 q 837 9 858 30 q 785 -12 815 -12 l 384 -12 q 315 -144 350 -90 m 422 587 q 504 944 471 784 l 231 944 l 231 587 l 422 587 m 713 132 l 713 444 l 534 444 q 439 132 491 279 l 713 132 z "},"%":{"ha":1116,"x_min":34,"x_max":1082,"o":"m 857 -3 q 697 63 764 -3 q 631 220 631 128 q 698 378 631 312 l 697 378 q 857 444 764 444 q 971 412 920 444 q 1053 331 1023 381 q 1082 220 1082 280 q 1017 63 1082 128 q 942 15 985 32 q 857 -3 899 -3 m 281 -41 l 156 31 l 793 1105 l 918 1033 l 281 -41 m 857 141 q 914 164 890 141 q 937 220 937 187 q 914 277 937 254 q 857 300 890 300 q 800 277 823 300 q 777 220 777 254 q 800 164 777 187 q 857 141 823 141 m 260 766 q 317 790 293 766 q 340 846 340 813 q 317 902 340 879 q 260 925 293 925 q 203 902 227 925 q 179 846 179 879 q 203 790 179 813 q 260 766 227 766 m 260 623 q 100 688 166 623 q 34 846 34 753 q 100 1003 34 937 l 100 1004 q 260 1069 166 1069 q 374 1038 323 1069 q 455 957 425 1007 q 486 846 486 906 q 419 688 486 753 q 345 640 387 657 q 260 623 302 623 z "},"&":{"ha":1126,"x_min":34,"x_max":1093,"o":"m 410 -3 q 244 25 324 -3 q 110 106 163 53 q 34 292 34 186 q 74 438 34 366 q 195 562 114 510 q 109 650 140 601 q 66 782 68 713 l 66 793 q 98 914 66 857 q 165 990 123 957 q 268 1043 208 1024 q 406 1063 328 1063 q 667 978 566 1061 q 774 758 767 897 l 630 751 q 574 869 624 829 q 415 920 509 919 l 406 920 q 289 898 334 920 q 224 844 243 877 q 211 794 211 820 l 211 788 q 231 727 212 757 q 302 665 254 691 q 421 629 349 638 l 445 629 q 516 625 479 629 l 511 483 l 479 482 q 419 485 448 482 q 286 450 340 479 q 199 368 227 416 q 179 291 179 329 q 214 205 179 242 q 298 157 246 174 q 409 140 349 140 q 515 156 465 140 q 594 201 562 171 q 640 317 640 245 l 785 317 l 785 315 q 694 98 785 183 q 562 20 638 45 q 410 -3 489 -3 m 498 201 l 353 201 l 353 442 l 425 442 q 621 469 504 442 q 834 540 738 496 q 960 640 931 585 l 1093 581 q 950 440 1052 499 q 726 348 849 382 q 498 303 603 313 l 498 201 z "},"'":{"ha":264,"x_min":34,"x_max":230,"o":"m 127 730 l 55 854 q 75 928 64 860 l 34 928 l 34 1072 l 230 1072 l 230 928 l 220 928 q 127 730 205 777 z "},"(":{"ha":568,"x_min":34,"x_max":534,"o":"m 491 -9 q 294 20 375 -9 q 34 456 34 109 q 51 650 34 553 q 93 846 67 748 q 149 1041 119 943 l 203 1041 q 431 1101 366 1041 l 534 1000 q 392 921 473 944 q 258 899 325 903 q 202 676 227 791 q 178 457 178 561 q 182 385 178 420 q 491 134 210 134 l 491 -9 z "},")":{"ha":568,"x_min":34,"x_max":534,"o":"m 76 -9 l 76 134 q 247 167 182 134 q 345 256 312 200 q 385 385 377 313 q 389 457 389 420 q 365 676 389 561 q 309 899 341 791 q 34 1000 131 908 l 136 1101 q 363 1041 201 1041 l 418 1041 q 481 817 459 905 q 534 456 534 609 q 409 98 534 218 q 76 -9 296 -9 z "},"*":{"ha":612,"x_min":34,"x_max":578,"o":"m 34 532 l 158 532 l 75 614 l 175 715 l 323 570 l 460 707 l 562 606 l 488 532 l 578 532 l 578 389 l 507 389 l 563 334 l 463 231 l 325 367 l 178 219 l 77 320 l 144 389 l 34 389 l 34 532 z "},"+":{"ha":612,"x_min":34,"x_max":578,"o":"m 387 664 l 386 471 l 578 471 l 578 328 l 385 328 l 385 120 l 241 120 l 242 328 l 34 328 l 34 471 l 242 471 l 243 665 l 387 664 z "},",":{"ha":258,"x_min":34,"x_max":224,"o":"m 45 -161 l 34 -18 q 67 1 60 -15 q 79 81 79 35 l 79 86 l 224 85 l 224 81 q 210 -25 224 28 q 158 -116 197 -78 q 45 -161 119 -154 z "},"-":{"ha":612,"x_min":34,"x_max":578,"o":"m 578 328 l 34 328 l 34 471 l 578 471 l 578 328 z "},"­":{"ha":612,"x_min":34,"x_max":578,"o":"m 578 328 l 34 328 l 34 471 l 578 471 l 578 328 z "},".":{"ha":213,"x_min":34,"x_max":179,"o":"m 179 -5 l 34 -5 l 34 106 l 179 106 l 179 -5 z "},"/":{"ha":829,"x_min":34,"x_max":795,"o":"m 159 -41 l 34 31 l 671 1105 l 795 1033 l 159 -41 z "},":":{"ha":213,"x_min":34,"x_max":179,"o":"m 179 553 l 34 553 l 34 664 l 179 664 l 179 553 m 179 103 l 34 103 l 34 214 l 179 214 l 179 103 z "},";":{"ha":269,"x_min":34,"x_max":235,"o":"m 235 553 l 90 553 l 90 664 l 235 664 l 235 553 m 45 -45 l 34 98 q 66 118 60 101 q 79 198 79 152 l 79 203 l 224 201 q 210 93 224 146 q 158 1 197 39 q 45 -45 119 -37 z "},";":{"ha":269,"x_min":34,"x_max":235,"o":"m 235 553 l 90 553 l 90 664 l 235 664 l 235 553 m 45 -45 l 34 98 q 66 118 60 101 q 79 198 79 152 l 79 203 l 224 201 q 210 93 224 146 q 158 1 197 39 q 45 -45 119 -37 z "},"<":{"ha":618,"x_min":34,"x_max":584,"o":"m 490 -2 l 153 279 l 126 258 l 34 368 l 469 725 l 562 615 l 267 372 l 584 107 l 490 -2 z "},"=":{"ha":612,"x_min":34,"x_max":578,"o":"m 578 166 l 34 166 l 34 309 l 578 309 l 578 166 m 578 433 l 34 433 l 34 576 l 578 576 l 578 433 z "},">":{"ha":617,"x_min":34,"x_max":583,"o":"m 127 -2 l 34 107 l 351 372 l 56 615 l 148 725 l 583 368 l 491 258 l 464 279 l 127 -2 z "},"?":{"ha":844,"x_min":34,"x_max":810,"o":"m 101 -8 l 101 12 q 120 183 101 122 q 199 306 145 264 q 309 384 242 341 q 425 464 363 420 q 540 558 486 507 q 629 668 594 610 q 664 789 664 726 q 576 939 664 885 q 450 972 523 972 q 402 968 427 972 q 233 873 301 953 q 179 701 179 804 l 180 682 l 35 675 l 34 700 q 119 960 34 854 q 237 1061 169 1023 q 450 1115 336 1115 q 652 1061 564 1115 q 804 846 779 983 q 810 785 810 815 q 783 650 810 713 q 711 531 755 586 q 611 428 666 475 q 499 339 556 380 q 391 265 442 299 q 292 197 326 224 q 259 142 270 180 q 245 7 245 99 l 245 -7 l 101 -8 m 244 -157 l 100 -157 l 100 -46 l 245 -46 l 244 -157 z "},"@":{"ha":1215,"x_min":34,"x_max":1181,"o":"m 607 3 q 385 45 489 3 q 202 163 281 88 q 79 339 123 239 q 34 553 34 439 q 80 771 34 675 q 203 943 125 867 q 386 1061 282 1019 q 607 1103 490 1103 q 829 1061 726 1103 q 1012 943 933 1018 q 1181 534 1181 782 q 1163 380 1181 455 q 825 106 1103 121 q 816 106 821 106 q 765 127 786 106 q 743 178 743 148 l 743 500 q 575 500 731 500 q 480 486 491 500 q 467 391 467 465 l 467 366 l 686 366 l 686 222 l 397 222 l 397 223 q 347 242 368 223 q 324 292 326 262 q 323 374 323 337 q 331 488 323 442 q 360 566 338 534 q 447 628 392 612 q 590 644 502 644 l 743 643 l 743 707 l 565 707 l 565 701 l 420 701 l 420 778 q 441 829 420 808 q 492 850 463 850 l 816 850 q 867 829 846 850 q 888 778 888 808 l 888 642 l 939 642 l 939 500 l 888 500 l 888 260 q 988 327 958 279 q 1024 420 1013 365 q 1036 532 1036 475 q 911 840 1036 720 l 911 840 q 774 928 852 897 q 607 960 696 960 q 440 928 518 960 q 304 840 362 897 l 303 840 q 212 711 245 785 q 179 553 179 637 q 213 393 179 463 q 304 266 247 322 q 440 178 362 210 q 607 146 518 146 l 607 3 z "},"A":{"ha":1168,"x_min":34,"x_max":1134,"o":"m 115 -48 l 34 71 q 412 488 286 245 q 458 587 437 536 l 356 587 l 356 730 l 509 730 q 568 1086 557 902 l 713 1078 q 659 730 702 899 l 820 730 q 812 915 812 827 q 822 1090 812 1011 l 966 1074 q 958 915 958 1002 q 966 730 958 828 l 1128 730 l 1128 587 l 982 587 q 995 505 987 545 q 1054 261 1019 370 q 1134 90 1088 151 l 1018 4 q 920 205 962 79 q 836 587 864 373 l 613 587 q 540 422 582 502 q 115 -48 399 148 z "},"B":{"ha":1035,"x_min":34,"x_max":1001,"o":"m 374 752 q 615 755 494 753 l 615 958 l 374 958 l 374 752 m 922 -1 l 173 -1 l 173 142 l 852 142 q 857 311 857 238 q 841 506 857 444 q 789 589 825 568 q 691 612 753 610 l 688 611 l 682 612 l 562 611 q 430 609 483 609 l 430 610 l 374 610 l 374 277 l 229 277 l 229 958 l 34 958 l 34 1101 l 688 1101 q 739 1080 718 1101 q 760 1029 760 1059 l 760 750 q 905 702 852 742 q 979 572 958 663 q 1001 317 1001 481 q 994 67 1001 210 q 971 18 992 38 q 922 -1 951 -1 z "},"C":{"ha":814,"x_min":34,"x_max":780,"o":"m 780 -1 l 566 -1 q 337 5 429 -1 q 185 37 245 12 q 90 113 125 62 q 45 232 56 161 q 34 405 34 302 q 37 567 34 477 q 40 844 40 758 q 38 1022 40 927 q 37 1029 37 1025 q 59 1080 37 1059 q 110 1101 80 1101 l 572 1101 q 623 1080 602 1101 q 644 1029 644 1059 l 644 898 l 498 898 l 498 958 l 184 958 l 184 845 q 181 578 184 692 l 178 402 q 185 271 178 322 q 209 195 191 220 q 313 151 232 161 q 551 141 393 141 l 780 142 l 780 -1 z "},"D":{"ha":954,"x_min":34,"x_max":920,"o":"m 294 -1 q 169 4 235 -1 q 119 26 139 6 q 100 76 100 47 l 100 828 l 245 828 l 245 143 l 294 142 q 544 185 448 142 q 688 314 640 229 q 756 530 737 400 q 776 831 776 659 q 774 963 776 895 l 34 963 l 34 1107 l 844 1107 q 893 1087 873 1107 q 916 1038 914 1067 q 920 835 920 930 q 897 496 920 644 q 814 243 874 348 q 618 60 744 121 q 294 -1 492 -1 z "},"E":{"ha":894,"x_min":34,"x_max":860,"o":"m 860 -1 l 646 -1 q 412 6 507 -1 q 256 38 317 13 q 158 117 195 64 q 114 231 125 163 q 102 397 102 298 q 107 587 102 479 l 34 587 l 34 730 l 113 730 q 118 1029 118 897 q 139 1080 118 1059 q 191 1101 161 1101 l 652 1101 q 703 1080 682 1101 q 724 1029 724 1059 l 724 898 l 579 898 l 579 958 l 262 958 q 257 730 260 833 l 676 730 l 676 587 l 252 587 q 247 387 247 469 q 254 269 247 315 q 277 197 260 222 q 386 152 302 161 q 632 142 469 142 l 860 142 l 860 -1 z "},"F":{"ha":1071,"x_min":34,"x_max":1037,"o":"m 404 11 l 259 11 l 259 460 l 168 460 l 168 604 l 259 604 l 259 837 l 34 837 l 34 981 l 81 980 l 259 979 l 259 1082 l 404 1082 l 404 981 q 728 1004 583 983 q 936 1080 873 1025 l 1037 979 q 882 895 980 924 q 660 852 783 865 q 404 838 537 840 l 404 604 l 726 604 l 726 460 l 404 460 l 404 11 z "},"G":{"ha":871,"x_min":34,"x_max":837,"o":"m 416 -5 l 391 -5 q 179 28 258 -5 q 67 160 101 62 q 34 452 34 257 q 36 567 34 502 q 39 831 39 680 q 37 1022 39 920 l 37 1029 q 59 1080 37 1059 q 110 1101 80 1101 l 577 1101 l 577 1101 q 629 1080 608 1101 q 650 1029 650 1059 l 649 899 l 505 899 l 505 958 l 183 958 l 184 827 q 182 622 184 690 l 179 458 q 199 253 179 321 q 266 161 220 184 q 389 138 313 138 q 617 141 473 138 l 618 319 q 351 294 490 294 l 351 437 q 597 461 486 437 q 758 519 694 480 l 837 399 q 764 362 804 378 l 761 70 q 740 20 761 41 q 689 -1 719 -1 q 490 -5 595 -1 l 416 -5 z "},"H":{"ha":874,"x_min":34,"x_max":840,"o":"m 732 11 l 587 11 l 587 421 q 248 374 421 384 l 248 165 l 102 165 l 102 368 l 34 367 l 34 511 l 102 511 l 102 998 l 248 998 l 248 517 q 587 568 435 529 l 587 1086 l 732 1086 l 732 620 l 767 638 l 840 515 q 732 465 791 487 l 732 11 z "},"I":{"ha":462,"x_min":34,"x_max":428,"o":"m 83 -6 l 58 -6 l 57 136 l 136 138 l 136 888 q 34 884 79 884 l 34 1027 q 136 1031 79 1027 l 136 1086 l 281 1086 l 281 1057 q 326 1080 311 1067 l 428 979 q 281 908 373 928 l 281 151 q 304 159 294 155 l 354 24 q 215 -1 293 3 q 83 -6 146 -6 z "},"J":{"ha":795,"x_min":34,"x_max":762,"o":"m 220 -1 q 104 5 165 -1 l 119 147 q 216 142 170 142 q 422 183 343 142 q 541 307 500 224 q 601 522 584 393 q 617 821 617 650 q 615 958 617 886 l 179 958 l 179 898 l 34 899 l 35 1029 q 56 1080 35 1059 q 107 1101 77 1101 l 686 1101 l 686 1101 q 735 1081 715 1101 q 758 1031 756 1061 q 762 824 762 922 q 742 491 762 636 q 671 244 722 347 q 502 60 610 121 q 220 -1 393 -1 z "},"K":{"ha":817,"x_min":34,"x_max":783,"o":"m 779 9 l 635 14 q 638 167 638 99 q 621 382 638 309 q 564 481 604 454 q 454 509 524 508 l 416 509 q 231 505 373 509 l 231 11 l 85 11 l 85 505 l 34 505 l 35 648 l 85 648 l 85 1086 l 231 1086 l 231 672 q 414 808 329 712 q 514 1080 514 926 l 514 1085 l 659 1086 l 659 1084 q 622 880 659 971 q 460 651 568 746 q 653 611 583 649 q 753 473 724 574 q 783 173 783 372 q 779 9 783 99 z "},"L":{"ha":803,"x_min":34,"x_max":769,"o":"m 286 -32 l 141 -32 l 141 -4 l 34 -4 l 34 139 l 141 139 l 141 1086 l 286 1086 l 286 139 l 769 139 l 769 -4 l 286 -4 l 286 -32 z "},"M":{"ha":1350,"x_min":34,"x_max":1316,"o":"m 1200 3 q 1088 219 1141 82 q 967 667 1010 419 l 738 376 q 724 360 732 367 q 679 345 703 345 q 622 372 647 345 l 382 669 q 261 219 340 422 q 149 3 208 82 l 34 89 q 130 279 84 156 q 211 549 176 401 q 258 824 243 690 l 129 984 l 242 1074 l 264 1046 q 261 1076 263 1061 l 405 1093 q 412 974 412 1038 q 408 868 412 923 l 678 532 l 942 868 q 938 979 938 926 q 944 1093 938 1040 l 1088 1076 q 1086 1051 1086 1063 l 1112 1084 l 1226 997 l 1091 825 q 1139 549 1106 690 q 1219 279 1173 401 q 1316 89 1265 156 l 1200 3 z "},"N":{"ha":1104,"x_min":34,"x_max":1070,"o":"m 848 -17 q 788 349 802 100 q 552 571 671 462 l 391 720 q 262 219 351 448 q 150 3 209 82 l 34 89 q 131 279 84 156 q 212 549 177 401 q 261 847 247 703 q 132 981 196 912 l 239 1077 l 264 1050 q 262 1076 262 1063 l 406 1093 q 412 973 412 1038 q 410 902 412 939 q 651 675 529 787 l 785 551 q 802 804 787 683 q 846 1015 817 925 l 983 969 q 942 759 955 884 q 929 503 929 634 q 930 410 929 456 q 1070 265 1001 341 l 963 170 l 948 186 q 981 39 962 87 l 848 -17 z "},"O":{"ha":890,"x_min":34,"x_max":857,"o":"m 448 121 q 504 130 476 121 q 637 219 580 151 q 710 397 696 290 q 712 438 712 417 q 692 568 712 498 q 620 710 671 644 q 486 823 569 777 q 286 888 404 870 q 214 740 240 823 q 179 517 179 630 q 272 207 179 324 q 448 121 336 128 m 450 -22 q 414 -20 432 -22 q 160 116 258 -3 q 34 518 34 275 q 76 784 34 652 q 123 897 95 844 q 79 895 102 897 l 69 1038 q 158 1040 115 1040 q 226 1038 193 1040 q 342 1122 277 1090 l 397 1011 q 555 948 486 987 q 735 797 667 886 q 832 607 804 708 q 857 439 857 519 q 854 382 857 410 q 748 128 835 231 q 544 -8 662 26 q 450 -22 497 -22 z "},"P":{"ha":929,"x_min":34,"x_max":895,"o":"m 286 11 l 140 11 l 140 344 q 37 342 92 344 l 34 486 q 140 487 90 487 l 140 1023 l 286 1023 l 286 486 l 433 485 q 522 486 481 485 q 660 516 610 488 q 730 619 710 545 q 750 838 750 693 q 748 951 750 890 l 400 951 l 400 1095 l 818 1095 l 818 1094 l 819 1094 q 868 1074 848 1094 q 890 1025 888 1055 q 895 821 895 911 q 863 525 895 625 q 751 386 831 424 q 527 344 670 347 q 436 342 486 342 l 286 344 l 286 11 z "},"Q":{"ha":775,"x_min":34,"x_max":741,"o":"m 647 -251 q 502 -186 564 -233 q 390 -58 434 -135 q 247 -60 372 -59 l 197 -60 l 199 83 q 336 83 313 83 q 323 201 323 142 q 326 250 323 226 l 470 237 q 468 198 468 218 q 479 106 468 151 q 559 221 535 132 q 596 703 596 353 q 593 951 596 814 l 180 951 l 178 11 l 34 11 l 35 1023 q 57 1074 35 1053 q 108 1095 78 1095 l 664 1095 l 664 1094 q 714 1074 694 1094 q 736 1024 735 1055 q 741 705 741 845 q 731 392 741 519 q 699 184 722 265 q 636 47 675 97 q 543 -27 598 -3 q 677 -111 594 -91 l 647 -251 z "},"R":{"ha":951,"x_min":34,"x_max":917,"o":"m 917 7 l 772 7 q 695 286 772 213 q 615 330 662 317 q 515 345 569 342 q 412 342 456 342 q 349 342 376 342 q 273 343 322 343 l 273 11 l 128 11 l 128 344 q 37 342 84 344 l 34 486 q 128 487 83 487 l 128 1023 l 273 1023 l 273 486 l 401 485 q 479 486 444 485 q 609 515 562 488 q 675 617 656 543 q 694 836 694 691 q 692 951 694 888 l 374 951 l 374 1095 l 762 1095 l 762 1094 l 764 1094 q 812 1074 792 1094 q 835 1025 833 1055 q 840 823 840 913 q 820 567 840 663 q 753 423 801 471 q 796 389 776 408 q 885 244 852 336 q 917 7 917 153 z "},"S":{"ha":892,"x_min":34,"x_max":858,"o":"m 785 5 l 77 5 l 77 149 l 713 149 l 713 461 l 159 461 q 108 482 129 461 q 87 532 87 503 l 87 960 l 34 960 l 34 1104 l 818 1104 l 818 960 l 232 960 l 232 604 l 785 604 q 837 583 815 604 q 858 532 858 562 l 858 77 q 837 26 858 47 q 785 5 815 5 z "},"T":{"ha":1128,"x_min":34,"x_max":1094,"o":"m 618 11 l 473 11 l 473 888 q 271 884 372 884 l 34 885 l 34 1029 l 264 1027 q 473 1031 368 1027 l 473 1086 l 618 1086 l 618 1040 q 1021 1147 870 1063 l 1094 1023 q 618 897 909 921 l 618 11 z "},"U":{"ha":903,"x_min":34,"x_max":869,"o":"m 695 -161 l 559 -113 q 600 14 581 -48 l 106 14 q 55 35 77 14 q 34 86 34 56 l 34 1086 l 179 1086 l 179 157 l 634 157 q 667 477 667 322 l 667 504 q 559 1061 661 795 l 695 1110 q 812 485 810 810 q 782 157 812 325 l 869 157 l 869 14 l 749 14 q 695 -161 727 -72 z "},"V":{"ha":1156,"x_min":34,"x_max":1122,"o":"m 449 -16 q 425 131 439 59 l 414 138 l 422 150 q 34 959 324 660 l 134 1057 q 528 311 414 769 l 1005 1030 l 1122 954 l 569 119 q 587 2 579 62 l 449 -16 z "},"W":{"ha":1350,"x_min":34,"x_max":1316,"o":"m 945 37 q 939 151 939 90 q 943 262 939 204 l 679 598 l 408 262 q 412 157 412 207 q 406 37 412 92 l 262 54 q 264 83 264 69 l 243 57 l 130 146 l 258 306 q 212 581 244 441 q 131 851 177 728 q 34 1041 84 974 l 150 1127 q 262 911 209 1048 q 383 461 340 710 l 623 758 q 680 785 648 785 q 724 770 703 785 q 739 755 732 763 l 968 463 q 1088 911 1012 713 q 1200 1127 1141 1048 l 1316 1041 q 1220 851 1266 974 q 1139 581 1174 728 q 1092 305 1107 440 l 1227 134 l 1112 46 l 1086 79 q 1089 54 1087 66 l 945 37 z "},"X":{"ha":1114,"x_min":34,"x_max":1080,"o":"m 1000 -48 q 557 347 725 133 q 114 -48 388 133 l 34 71 q 467 466 307 252 q 303 742 379 596 q 151 1056 227 888 l 283 1115 q 417 837 351 966 q 557 592 483 707 q 696 837 630 707 q 830 1115 762 966 l 962 1056 q 810 742 886 888 q 646 466 734 596 q 1080 71 806 252 l 1000 -48 z "},"Y":{"ha":830,"x_min":34,"x_max":796,"o":"m 205 -22 l 202 121 l 567 127 l 567 374 l 438 372 l 381 374 q 170 414 245 376 q 64 559 94 453 q 34 878 34 665 q 38 1088 34 970 l 183 1083 q 179 883 179 969 q 197 651 179 729 q 261 545 216 573 q 386 516 306 517 q 445 515 414 515 q 567 517 502 515 l 567 1086 l 712 1086 l 712 517 q 796 516 753 517 l 793 373 q 712 374 751 374 l 712 58 l 711 58 q 691 8 711 28 q 641 -14 671 -12 l 205 -22 z "},"Z":{"ha":892,"x_min":34,"x_max":858,"o":"m 814 5 l 106 5 q 55 26 77 5 q 34 77 34 47 l 34 532 q 55 583 34 562 q 106 604 77 604 l 661 604 l 661 960 l 74 960 l 74 1104 l 858 1104 l 858 960 l 806 960 l 806 532 q 784 482 806 503 q 733 461 763 461 l 179 461 l 179 149 l 814 149 l 814 5 z "},"[":{"ha":486,"x_min":34,"x_max":452,"o":"m 400 -12 l 34 -12 l 34 1057 l 106 1057 q 251 1079 175 1057 q 370 1128 328 1100 l 452 1010 q 329 952 403 977 q 179 919 254 928 l 179 132 l 400 132 l 400 -12 z "},"\\":{"ha":829,"x_min":34,"x_max":795,"o":"m 671 -41 l 34 1033 l 159 1105 l 795 31 l 671 -41 z "},"]":{"ha":487,"x_min":34,"x_max":453,"o":"m 453 -12 l 86 -12 l 86 132 l 308 132 l 308 919 q 158 952 232 928 q 34 1010 84 977 l 117 1128 q 235 1079 159 1100 q 380 1057 311 1057 l 453 1057 l 453 -12 z "},"^":{"ha":608,"x_min":34,"x_max":574,"o":"m 128 771 l 34 880 l 214 1031 l 182 1063 l 285 1164 l 574 876 l 472 774 l 315 930 l 128 771 z "},"_":{"ha":814,"x_min":34,"x_max":780,"o":"m 780 -9 l 34 -9 l 34 135 l 780 135 l 780 -9 z "},"`":{"ha":460,"x_min":34,"x_max":427,"o":"m 323 774 l 34 1063 l 137 1164 l 427 876 l 323 774 z "},"a":{"ha":827,"x_min":34,"x_max":793,"o":"m 474 -2 l 109 -2 q 59 18 79 -2 q 36 67 38 37 q 34 172 34 125 q 43 309 34 254 q 78 401 53 364 q 180 474 115 456 q 344 491 243 491 l 565 490 l 565 608 l 302 608 l 302 582 l 157 582 l 157 680 q 178 730 157 709 q 229 751 199 751 l 637 751 q 689 730 667 751 q 710 680 710 709 l 710 490 l 792 490 l 793 347 l 710 347 l 710 70 l 565 70 l 565 348 l 332 349 q 198 320 217 349 q 178 186 178 292 l 179 141 l 474 141 l 474 -2 z "},"b":{"ha":831,"x_min":34,"x_max":797,"o":"m 720 -2 l 355 -2 l 355 141 l 650 141 q 652 260 652 206 q 634 478 652 405 q 571 579 616 552 q 448 606 526 606 l 393 608 q 335 607 361 608 q 264 606 309 606 l 264 70 l 119 70 l 119 606 q 34 607 78 606 l 38 750 q 119 749 80 749 l 119 1081 l 264 1081 l 264 749 q 391 750 328 750 q 454 749 425 750 q 663 709 588 747 q 767 571 738 672 q 797 270 797 470 q 792 67 797 180 q 770 18 790 37 q 720 -2 749 -2 z "},"c":{"ha":642,"x_min":34,"x_max":608,"o":"m 608 -2 l 454 -2 q 277 3 349 -2 q 158 25 205 7 q 81 80 111 43 q 44 161 54 114 q 34 274 34 208 q 38 414 34 334 l 39 452 q 45 673 44 547 l 45 680 q 66 730 45 709 q 117 751 87 751 l 518 751 q 569 730 548 751 q 591 680 591 709 l 591 566 l 446 566 l 446 608 l 189 608 q 182 409 187 492 q 178 268 178 303 q 194 169 178 191 q 268 145 208 151 q 444 140 327 140 l 608 141 l 608 -2 z "},"d":{"ha":831,"x_min":34,"x_max":797,"o":"m 476 -4 l 111 -4 l 111 -3 q 61 16 81 -3 q 39 65 41 36 q 34 268 34 178 q 63 570 34 469 q 168 708 93 671 q 377 747 243 745 q 444 749 408 749 q 502 748 477 749 q 567 747 526 747 l 567 1080 l 712 1080 l 712 747 q 793 748 751 747 l 797 606 l 712 604 l 712 68 l 567 68 l 567 604 q 442 606 505 606 q 382 605 410 606 q 259 576 304 604 q 196 475 214 549 q 178 254 178 401 q 180 140 178 202 l 476 140 l 476 -4 z "},"e":{"ha":724,"x_min":34,"x_max":690,"o":"m 690 -4 l 542 -4 q 365 1 437 -4 q 247 23 294 5 q 171 76 200 40 q 133 162 142 113 q 124 284 124 212 l 125 343 l 35 342 l 34 486 l 128 486 l 129 587 l 128 670 l 127 678 q 149 729 127 708 q 200 750 170 750 l 600 750 q 652 729 631 750 q 673 678 673 708 l 673 418 q 652 368 673 389 q 601 347 631 347 l 270 345 l 269 273 q 284 165 269 187 q 355 144 298 149 q 525 139 412 139 l 638 139 l 648 140 l 690 140 l 690 -4 m 273 487 l 528 490 l 528 606 l 273 606 l 273 487 z "},"f":{"ha":812,"x_min":34,"x_max":779,"o":"m 313 -306 l 168 -306 l 168 125 l 35 125 l 35 268 l 168 268 l 168 467 l 34 467 l 35 610 l 168 609 l 168 678 l 313 678 l 313 613 q 522 645 427 619 q 673 727 616 670 l 779 629 q 574 511 696 546 q 313 471 452 477 l 313 268 l 605 268 l 605 125 l 313 125 l 313 -306 z "},"g":{"ha":830,"x_min":34,"x_max":796,"o":"m 205 -373 l 202 -230 l 566 -223 l 566 3 q 439 2 503 2 q 376 3 406 2 q 168 43 243 5 q 63 181 92 80 q 34 484 34 283 q 38 685 34 573 q 60 734 40 715 q 110 754 81 754 l 475 754 l 475 611 l 180 611 q 178 492 178 546 q 196 274 178 347 q 259 174 214 201 q 382 146 304 146 q 441 145 410 145 l 566 146 l 566 683 l 711 683 l 711 146 q 796 145 752 146 l 792 2 q 739 3 765 3 l 711 4 l 711 -294 q 691 -343 711 -323 q 640 -365 671 -363 l 205 -373 z "},"h":{"ha":763,"x_min":34,"x_max":729,"o":"m 728 12 l 583 14 l 585 207 q 574 426 585 345 q 538 547 564 507 q 464 598 511 587 q 340 610 416 610 l 250 610 l 250 14 l 104 14 l 104 609 l 34 610 l 38 753 l 104 751 l 104 1088 l 250 1088 l 250 753 l 374 754 q 524 745 462 754 q 626 705 585 735 q 689 616 666 675 q 720 459 711 557 q 729 213 729 361 q 728 12 729 50 z "},"i":{"ha":365,"x_min":34,"x_max":331,"o":"m 249 638 l 104 638 l 104 724 l 249 724 l 249 638 m 249 14 l 104 14 l 104 450 l 35 449 l 34 591 l 44 592 l 62 592 q 176 595 114 592 q 282 614 237 599 l 331 479 q 249 460 294 467 l 249 14 z "},"j":{"ha":810,"x_min":34,"x_max":777,"o":"m 143 -379 q 34 -374 92 -379 l 45 -232 q 141 -236 96 -236 q 355 -198 274 -236 q 478 -84 437 -160 q 534 97 517 -12 q 550 348 550 205 q 549 448 550 396 l 481 448 l 479 590 q 617 594 551 590 q 727 612 683 597 l 777 477 q 693 458 739 465 q 694 355 694 405 q 674 65 694 191 q 605 -153 654 -62 q 432 -322 543 -266 q 143 -379 320 -379 m 688 637 l 542 637 l 542 723 l 688 723 l 688 637 z "},"k":{"ha":750,"x_min":34,"x_max":716,"o":"m 714 11 l 570 13 q 570 97 570 50 q 571 191 570 153 l 571 216 q 552 325 571 299 q 482 351 534 351 q 355 349 418 351 q 239 345 303 347 l 235 11 l 91 12 l 94 345 q 38 346 66 345 l 34 346 l 38 488 l 96 487 l 102 1086 l 246 1086 l 241 529 q 350 618 300 565 q 472 831 437 707 l 613 795 q 456 519 568 635 l 430 494 l 457 494 l 483 494 q 627 471 576 493 q 697 393 677 450 q 716 229 716 337 l 714 11 z "},"l":{"ha":361,"x_min":34,"x_max":328,"o":"m 222 12 l 77 12 l 77 39 l 34 39 l 34 183 l 77 183 l 77 1129 l 222 1129 l 222 183 l 328 183 l 328 39 l 222 39 l 222 12 z "},"m":{"ha":1057,"x_min":34,"x_max":1023,"o":"m 142 -12 q 73 397 73 186 q 88 610 73 504 l 34 610 l 34 753 l 115 753 q 140 850 127 801 l 280 811 l 264 753 l 496 753 l 496 831 l 642 831 l 642 753 l 951 753 q 1002 732 981 753 q 1023 681 1023 711 l 1023 12 l 878 12 l 878 610 l 642 610 l 642 12 l 496 12 l 496 610 l 235 610 q 217 401 218 505 q 279 35 217 211 l 142 -12 z "},"n":{"ha":695,"x_min":34,"x_max":661,"o":"m 142 -15 q 56 400 60 182 l 56 412 q 73 610 56 508 l 34 610 l 34 753 l 106 753 q 142 856 122 804 l 277 805 l 258 753 l 589 753 q 640 732 618 753 q 661 681 661 711 l 661 12 l 516 12 l 516 610 l 220 610 q 200 412 200 507 l 200 401 q 277 39 205 212 l 142 -15 z "},"o":{"ha":687,"x_min":34,"x_max":653,"o":"m 345 140 q 378 146 361 140 q 461 202 425 159 q 507 314 498 245 q 508 340 508 327 q 495 425 508 380 q 448 517 481 475 q 242 631 380 606 q 202 545 218 593 q 179 398 179 473 q 239 193 179 267 q 345 140 278 144 m 347 -2 q 319 -1 333 -2 q 127 102 197 14 q 34 395 34 218 q 64 589 34 493 q 89 650 75 621 l 79 781 q 142 783 112 783 l 182 782 q 262 838 218 816 l 297 766 q 564 605 471 725 q 635 465 614 539 q 653 343 653 401 q 650 300 653 321 q 573 111 637 186 q 418 8 507 33 q 347 -2 383 -2 z "},"p":{"ha":829,"x_min":34,"x_max":795,"o":"m 262 -323 l 117 -323 l 118 9 l 35 9 l 34 151 l 77 152 l 118 151 l 119 707 l 263 707 l 262 148 l 308 146 q 444 142 385 142 l 475 143 q 581 171 543 144 q 635 270 620 198 q 650 481 650 342 q 649 590 650 531 l 354 590 l 354 733 l 720 733 q 769 713 749 733 q 792 664 790 694 q 795 480 795 562 q 769 180 795 282 q 673 40 742 79 q 479 1 604 2 q 435 0 458 0 q 317 3 371 0 l 262 5 l 262 -323 z "},"q":{"ha":829,"x_min":34,"x_max":795,"o":"m 711 -325 l 567 -325 l 566 3 l 526 1 q 384 -3 447 -3 l 349 -2 q 157 38 226 0 q 61 177 87 76 q 34 473 34 278 q 37 661 34 557 q 59 711 39 691 q 109 730 80 730 l 109 731 l 475 731 l 475 587 l 180 587 q 178 479 178 528 q 194 268 178 340 q 248 169 210 195 q 354 141 286 142 l 387 140 q 566 146 453 140 l 566 705 l 711 705 l 711 149 l 795 149 l 794 6 l 752 7 l 711 6 l 711 -325 z "},"r":{"ha":677,"x_min":34,"x_max":644,"o":"m 262 12 l 117 12 l 117 534 q 34 560 75 545 l 85 694 q 117 683 101 688 l 117 738 l 262 738 l 262 656 q 313 655 288 655 l 344 656 q 570 714 478 662 l 644 591 q 351 513 521 522 l 317 512 q 262 513 290 512 l 262 12 z "},"s":{"ha":663,"x_min":34,"x_max":629,"o":"m 556 -17 l 109 -17 l 109 127 l 484 127 l 484 271 l 161 271 q 109 292 130 271 q 87 343 87 313 l 87 587 l 34 587 l 34 731 l 577 731 l 577 587 l 233 587 l 233 415 l 556 415 q 608 394 587 415 q 629 343 629 373 l 629 55 q 608 4 629 25 q 556 -17 587 -17 z "},"t":{"ha":530,"x_min":34,"x_max":496,"o":"m 496 3 l 239 3 q 188 24 210 3 q 167 74 167 45 l 167 365 q 34 359 102 359 l 34 502 q 167 509 103 502 l 167 1099 l 312 1099 l 312 546 q 371 588 348 563 l 478 492 q 312 393 412 423 l 312 146 l 496 146 l 496 3 z "},"u":{"ha":695,"x_min":34,"x_max":661,"o":"m 553 -113 l 418 -62 q 437 -10 428 -36 l 107 -10 q 55 11 77 -10 q 34 61 34 32 l 34 731 l 180 731 l 180 133 l 475 133 q 495 331 495 235 q 418 704 494 523 l 553 758 q 640 322 637 554 q 623 133 640 229 l 661 133 l 661 -10 l 589 -10 q 553 -113 574 -61 z "},"v":{"ha":709,"x_min":34,"x_max":675,"o":"m 251 -5 q 34 607 208 393 l 134 724 q 338 302 274 549 l 559 701 l 675 609 l 381 79 l 389 17 l 251 -5 z "},"w":{"ha":899,"x_min":34,"x_max":865,"o":"m 586 3 q 582 81 582 39 q 587 178 582 127 l 450 334 l 311 181 q 317 77 317 126 q 313 3 317 38 l 168 20 l 169 24 l 158 12 l 50 107 l 160 229 q 138 351 152 290 q 34 640 94 548 l 152 723 q 223 579 189 670 q 280 382 256 488 l 283 364 l 398 490 q 452 513 422 513 q 500 496 477 513 q 615 364 507 489 l 618 382 q 676 579 642 488 q 747 723 709 670 l 865 640 q 760 351 804 548 q 738 224 747 288 l 843 102 l 733 9 l 725 19 l 586 3 z "},"x":{"ha":779,"x_min":34,"x_max":745,"o":"m 665 -48 q 389 189 497 62 q 113 -48 281 62 l 34 72 q 300 307 199 180 q 197 479 245 388 q 102 675 149 571 l 233 735 q 389 433 309 566 q 545 734 469 566 l 677 675 q 582 479 629 571 q 479 307 534 388 q 745 72 579 180 l 665 -48 z "},"y":{"ha":830,"x_min":34,"x_max":796,"o":"m 205 -364 l 202 -221 l 566 -214 l 566 12 l 444 11 q 376 12 408 11 q 168 52 243 14 q 63 190 92 89 q 34 493 34 292 q 38 694 34 582 l 182 689 q 178 505 178 584 q 196 284 178 358 q 259 183 214 210 q 382 155 304 156 q 441 154 410 154 q 566 155 503 154 l 566 692 l 711 692 l 711 156 l 740 155 q 796 154 768 155 l 792 12 q 711 13 751 13 l 711 -284 q 691 -334 711 -313 q 640 -356 671 -355 l 205 -364 z "},"z":{"ha":667,"x_min":34,"x_max":633,"o":"m 554 1 l 106 1 q 55 22 77 1 q 34 73 34 43 l 34 361 q 55 411 34 390 q 106 432 77 432 l 430 432 l 430 605 l 86 605 l 86 748 l 633 748 l 633 605 l 575 605 l 575 361 q 554 310 575 331 q 503 289 532 289 l 179 289 l 179 144 l 554 144 l 554 1 z "},"{":{"ha":665,"x_min":34,"x_max":631,"o":"m 578 -12 l 243 -12 l 222 24 q 189 120 197 69 q 178 224 180 170 q 159 354 176 293 q 83 446 142 416 q 66 453 73 450 q 57 457 60 455 q 52 462 54 458 q 49 472 51 465 q 44 489 47 478 q 34 545 34 520 q 44 592 34 571 q 73 632 55 613 q 113 670 90 650 q 158 718 135 689 q 199 793 182 747 q 216 914 216 840 q 212 979 216 943 l 204 1057 l 284 1057 q 430 1079 351 1057 q 548 1128 505 1099 l 631 1010 q 469 941 567 968 q 361 920 415 926 l 361 908 q 261 614 361 721 q 203 557 237 589 q 193 548 197 553 q 275 458 249 509 q 311 349 302 407 q 322 233 319 292 l 323 222 q 334 132 326 172 l 578 132 l 578 -12 z "},"|":{"ha":213,"x_min":34,"x_max":179,"o":"m 179 -5 l 34 -5 l 34 1069 l 179 1069 l 179 -5 z "},"}":{"ha":665,"x_min":34,"x_max":631,"o":"m 422 -12 l 86 -12 l 86 132 l 330 132 q 341 222 338 172 l 342 233 q 353 349 345 292 q 389 458 362 407 q 471 548 415 509 q 461 557 467 553 q 403 615 429 587 q 355 682 378 642 q 304 908 304 770 l 304 920 q 195 941 249 926 q 34 1010 97 968 l 117 1128 q 234 1079 159 1099 q 380 1057 314 1057 l 460 1057 l 452 979 q 448 914 448 943 q 465 793 448 840 q 506 718 482 747 q 551 670 529 689 q 591 631 574 650 q 620 592 609 612 q 631 544 631 571 q 621 489 631 519 q 615 472 617 478 q 611 461 613 465 q 597 452 610 457 q 505 355 524 425 q 486 224 488 293 q 475 118 482 158 q 443 24 467 68 l 422 -12 z "},"~":{"ha":838,"x_min":34,"x_max":804,"o":"m 620 312 l 595 313 q 403 352 505 321 l 392 355 q 237 387 304 381 l 231 387 q 195 376 209 387 q 178 338 180 366 l 34 344 q 62 455 37 414 q 128 513 87 496 q 223 530 170 530 q 441 490 318 528 l 454 486 q 611 456 552 458 q 659 498 656 456 l 804 490 q 775 384 799 422 q 711 328 751 345 q 620 312 671 312 z "},"¡":{"ha":305,"x_min":34,"x_max":271,"o":"m 271 1095 l 126 1095 l 126 1206 l 271 1206 l 271 1095 m 179 -20 l 34 -20 q 58 508 34 233 q 128 1002 82 783 l 203 987 l 270 973 q 202 491 224 756 q 179 -20 179 227 z "},"¢":{"ha":642,"x_min":34,"x_max":608,"o":"m 265 -26 l 134 35 q 157 109 142 52 q 81 164 111 127 q 44 246 54 199 q 34 361 34 294 q 38 498 34 399 q 45 758 44 606 l 45 764 q 67 814 45 793 q 118 836 88 836 l 334 836 l 368 983 l 510 951 l 483 836 l 518 836 q 569 814 548 836 q 591 764 591 793 l 591 649 l 446 649 l 446 675 q 336 225 393 448 q 469 224 372 224 q 567 225 559 224 q 608 225 574 225 l 608 81 q 300 85 387 81 q 265 -26 277 -1 m 195 252 q 301 692 248 465 l 189 692 q 183 493 188 621 q 178 351 178 406 q 195 252 178 269 z "},"£":{"ha":761,"x_min":34,"x_max":727,"o":"m 727 -3 l 106 -3 l 106 -3 q 73 5 90 -3 q 44 32 54 14 q 34 69 34 50 q 41 101 34 85 q 173 323 108 227 l 176 328 l 71 328 l 71 471 l 180 471 q 143 556 160 512 q 85 789 85 707 q 108 939 85 875 q 171 1045 132 1002 q 262 1112 211 1088 q 390 1141 324 1141 q 578 1078 492 1141 q 674 966 637 1036 q 711 804 711 897 q 701 710 711 760 l 559 739 q 566 802 566 772 q 546 899 566 859 q 492 964 525 939 q 408 996 454 991 l 389 998 q 256 917 302 998 q 229 791 229 870 q 278 608 229 732 q 345 471 310 526 l 547 471 l 547 328 l 349 328 l 306 262 q 229 140 256 186 l 727 140 l 727 -3 z "},"¤":{"ha":730,"x_min":34,"x_max":696,"o":"m 444 238 l 444 559 l 283 559 q 278 425 281 482 q 276 345 276 377 q 294 261 276 282 q 370 239 312 240 q 444 238 402 238 m 585 -24 l 486 95 q 364 96 414 95 q 255 107 298 99 l 146 -24 l 34 67 l 140 195 q 130 303 130 236 q 134 430 130 357 q 139 593 137 500 l 34 719 l 146 810 l 235 703 l 496 703 l 585 810 l 696 719 l 589 589 l 589 239 l 589 239 l 589 197 l 696 67 l 585 -24 z "},"¥":{"ha":838,"x_min":34,"x_max":804,"o":"m 205 -39 l 202 104 l 566 111 l 566 123 l 454 123 l 454 209 l 566 209 l 566 231 l 454 231 l 454 317 l 566 317 l 566 357 q 442 356 505 356 q 381 357 410 356 q 169 397 245 359 q 63 542 93 436 q 34 859 34 648 q 38 1071 34 953 l 182 1067 q 178 871 178 956 q 197 635 178 714 q 260 529 215 557 q 386 500 306 500 l 440 498 q 498 499 474 498 q 566 500 523 500 l 566 1069 l 711 1069 l 711 500 q 796 499 752 500 l 792 356 q 739 357 765 357 l 711 358 l 711 317 l 804 317 l 804 231 l 711 231 l 711 209 l 804 209 l 804 123 l 711 123 l 711 41 q 691 -9 711 12 q 640 -31 671 -29 l 205 -39 z "},"¦":{"ha":216,"x_min":34,"x_max":182,"o":"m 37 634 l 34 1069 l 179 1069 l 182 635 l 37 634 m 179 -5 l 34 -5 l 34 460 l 179 460 l 179 -5 z "},"§":{"ha":1208,"x_min":34,"x_max":1175,"o":"m 571 -4 l 124 -4 l 124 139 l 498 139 l 498 284 l 176 284 q 124 305 145 284 q 103 356 103 326 l 103 600 l 34 600 l 34 743 l 633 743 l 633 913 l 572 913 l 572 1057 l 1122 1057 l 1122 913 l 779 913 l 779 743 l 1102 741 q 1153 720 1133 740 q 1175 669 1173 700 l 1175 381 q 1153 331 1175 351 q 1102 310 1132 310 l 654 310 l 654 453 l 1029 453 l 1029 599 l 706 600 l 248 600 l 248 427 l 571 427 q 623 406 602 427 q 644 356 644 385 l 644 68 q 623 17 644 38 q 571 -4 602 -4 z "},"¨":{"ha":470,"x_min":34,"x_max":436,"o":"m 179 958 l 34 958 l 34 1069 l 179 1069 l 179 958 m 436 958 l 291 958 l 291 1069 l 436 1069 l 436 958 z "},"©":{"ha":1242,"x_min":34,"x_max":1208,"o":"m 837 213 l 711 213 q 569 217 627 213 q 473 236 511 221 q 409 283 434 252 q 377 352 385 313 q 368 446 368 391 q 372 557 368 494 l 373 591 q 377 766 377 665 q 398 817 377 796 q 450 838 420 838 l 766 838 q 817 817 795 838 q 838 766 838 796 l 838 676 l 693 676 l 693 694 l 521 694 q 516 552 519 612 q 513 438 513 481 q 522 373 513 385 q 582 358 532 361 q 751 355 633 355 q 798 356 784 355 l 837 356 l 837 213 m 621 96 q 844 157 743 96 q 1004 319 944 217 q 1063 545 1063 421 q 1004 771 1063 669 q 844 933 944 873 q 621 994 743 994 q 399 933 499 994 q 239 771 298 873 q 179 545 179 669 q 239 319 179 421 q 399 157 298 217 q 621 96 499 96 m 621 -47 q 393 -1 500 -47 q 206 127 286 45 q 80 315 125 208 q 34 545 34 422 q 80 774 34 667 q 206 963 125 882 q 393 1091 286 1044 q 621 1137 500 1137 q 849 1091 743 1137 q 1037 963 956 1044 q 1163 774 1117 882 q 1208 545 1208 667 q 1163 316 1208 423 q 1037 127 1118 209 q 850 -1 957 46 q 621 -47 743 -47 z "},"ª":{"ha":575,"x_min":34,"x_max":541,"o":"m 339 551 l 108 551 l 108 552 q 58 572 79 552 q 35 621 37 591 q 34 689 34 658 q 41 783 34 745 q 66 848 47 821 q 141 903 95 890 q 262 917 187 917 l 370 916 l 370 938 l 55 938 l 55 1082 l 443 1082 q 494 1061 473 1082 q 515 1010 515 1040 l 515 916 l 541 916 l 541 773 l 515 773 l 515 623 l 370 623 l 370 773 l 262 774 q 186 768 191 774 q 178 709 178 756 l 178 695 l 339 695 l 339 551 z "},"«":{"ha":973,"x_min":34,"x_max":939,"o":"m 490 -2 l 153 279 l 127 258 l 34 368 l 470 725 l 562 615 l 267 372 l 584 107 l 490 -2 m 846 -2 l 509 279 l 482 258 l 389 368 l 825 725 l 918 615 l 622 372 l 939 107 l 846 -2 z "},"¬":{"ha":786,"x_min":34,"x_max":752,"o":"m 682 -5 l 536 -5 l 536 328 l 34 328 l 34 471 l 752 471 l 752 328 l 682 328 l 682 -5 z "},"®":{"ha":1242,"x_min":34,"x_max":1208,"o":"m 621 96 q 844 157 743 96 q 1004 319 944 217 q 1063 545 1063 421 q 1004 771 1063 669 q 844 933 944 873 q 621 994 743 994 q 399 933 499 994 q 239 771 298 873 q 179 545 179 669 q 239 319 179 421 q 399 157 298 217 q 621 96 499 96 m 621 -47 q 393 -1 499 -47 q 206 127 286 45 q 80 315 125 208 q 34 545 34 422 q 80 774 34 667 q 206 963 125 882 q 393 1091 286 1044 q 621 1137 499 1137 q 849 1091 743 1137 q 1036 963 956 1044 q 1163 774 1117 882 q 1208 545 1208 667 q 1163 316 1208 423 q 1037 127 1118 209 q 850 -1 957 46 q 621 -47 743 -47 m 906 231 l 762 231 q 725 372 762 338 q 642 397 696 396 q 581 395 625 396 l 531 396 l 531 233 l 385 233 l 385 396 l 363 396 l 360 538 l 385 539 l 385 822 l 531 822 l 531 539 l 578 538 l 622 539 q 696 572 675 539 q 716 715 716 606 l 715 751 l 559 751 l 559 894 l 786 894 q 836 874 815 894 q 858 825 856 854 q 861 701 861 756 q 825 475 861 536 l 827 473 q 906 231 906 400 z "},"¯":{"ha":696,"x_min":34,"x_max":662,"o":"m 662 931 l 34 931 l 34 1074 l 662 1074 l 662 931 z "},"°":{"ha":498,"x_min":34,"x_max":465,"o":"m 250 686 q 140 715 189 686 q 63 795 92 745 q 34 903 34 844 q 63 1010 34 961 q 140 1090 92 1060 q 250 1120 189 1120 q 358 1090 309 1120 q 436 1010 407 1060 q 465 903 465 961 q 436 795 465 844 q 358 715 407 745 q 250 686 309 686 m 250 829 q 297 849 277 829 q 319 899 317 869 q 296 956 319 935 q 250 976 277 976 q 201 956 221 976 q 180 906 182 936 q 202 848 180 870 q 250 829 222 829 z "},"±":{"ha":720,"x_min":34,"x_max":686,"o":"m 433 182 l 288 182 l 288 435 l 34 435 l 34 578 l 288 578 l 288 744 l 433 744 l 433 578 l 686 578 l 686 435 l 433 435 l 433 182 m 659 -9 l 61 -9 l 61 135 l 659 135 l 659 -9 z "},"²":{"ha":469,"x_min":34,"x_max":435,"o":"m 34 612 l 34 755 l 66 755 q 146 875 77 829 q 199 905 161 885 q 290 970 288 949 l 290 974 q 280 989 288 983 q 250 998 269 998 l 241 997 q 203 977 218 994 q 190 935 190 964 l 190 932 l 45 930 l 45 936 q 91 1068 45 1014 q 250 1141 157 1141 q 363 1105 316 1141 q 422 1036 403 1078 q 435 973 435 1006 q 357 832 435 892 q 265 778 312 801 q 229 758 243 767 q 427 761 366 761 l 427 618 q 232 615 333 618 l 34 612 z "},"³":{"ha":492,"x_min":34,"x_max":458,"o":"m 255 601 q 104 656 163 601 q 53 779 53 705 l 197 779 q 205 759 197 765 q 255 744 221 744 q 309 760 290 744 q 314 769 313 764 q 290 802 314 789 q 246 812 274 812 q 216 810 231 810 l 203 952 q 239 955 222 954 q 304 983 293 963 l 305 984 q 254 998 296 998 q 191 978 220 997 q 178 962 178 970 l 34 968 q 106 1095 38 1048 q 251 1140 175 1139 l 258 1140 q 363 1118 320 1140 q 428 1060 406 1095 q 450 985 450 1025 q 428 908 450 945 q 412 888 421 897 q 437 854 427 872 q 458 771 458 814 l 458 754 q 414 661 452 701 q 342 616 385 631 q 255 601 300 601 z "},"´":{"ha":460,"x_min":34,"x_max":426,"o":"m 323 774 l 34 1063 l 136 1164 l 426 876 l 323 774 z "},"µ":{"ha":695,"x_min":34,"x_max":661,"o":"m 661 -344 l 516 -344 l 516 72 l 229 72 q 277 -95 247 -15 l 142 -146 q 81 72 102 -41 l 34 72 l 34 216 l 61 216 q 56 349 56 282 q 142 840 56 618 l 277 787 q 201 349 201 593 q 207 216 201 282 l 516 216 l 516 813 l 661 813 l 661 -344 z "},"¶":{"ha":903,"x_min":34,"x_max":869,"o":"m 834 37 l 689 37 l 689 612 l 526 612 l 526 37 l 380 37 l 380 612 l 106 612 q 55 633 77 612 q 34 684 34 654 l 34 969 q 55 1020 34 999 q 106 1041 77 1041 l 863 1041 l 863 898 l 834 898 l 834 756 l 869 756 l 869 612 l 834 612 l 834 37 m 689 756 l 689 898 l 526 898 l 526 756 l 689 756 z "},"·":{"ha":213,"x_min":34,"x_max":179,"o":"m 179 344 l 34 344 l 34 455 l 179 455 l 179 344 z "},"∙":{"ha":213,"x_min":34,"x_max":179,"o":"m 179 344 l 34 344 l 34 455 l 179 455 l 179 344 z "},"¸":{"ha":398,"x_min":34,"x_max":364,"o":"m 124 -343 q 34 -322 79 -343 l 98 -194 q 123 -200 111 -200 l 127 -200 q 200 -140 172 -195 q 216 -90 212 -117 l 123 -77 q 74 -55 94 -75 q 54 -5 54 -35 l 54 106 l 199 106 l 199 57 l 300 44 q 344 21 327 40 q 363 -24 361 2 l 364 -54 q 330 -203 364 -138 q 252 -298 300 -262 q 124 -343 196 -340 z "},"¹":{"ha":343,"x_min":34,"x_max":309,"o":"m 70 597 l 69 740 l 110 740 l 110 963 q 74 947 89 952 l 34 1086 q 62 1100 43 1088 q 99 1123 81 1111 q 122 1143 117 1136 l 256 1105 l 256 747 q 282 750 270 748 l 309 610 q 98 597 236 597 l 74 597 l 70 597 z "},"º":{"ha":498,"x_min":34,"x_max":465,"o":"m 250 560 q 140 598 189 560 q 63 701 92 637 q 34 840 34 764 q 63 979 34 915 q 140 1081 92 1042 q 250 1120 189 1120 q 358 1081 309 1120 q 436 979 407 1042 q 465 840 465 915 q 436 701 465 764 q 358 598 407 637 q 250 560 309 560 m 250 745 q 297 771 277 745 q 319 836 317 797 q 296 909 319 882 q 250 935 277 935 q 201 909 221 935 q 180 844 182 883 q 202 770 180 798 q 250 745 222 745 z "},"»":{"ha":973,"x_min":34,"x_max":939,"o":"m 483 -2 l 389 107 l 707 372 l 411 615 l 503 725 l 939 368 l 846 258 l 820 279 l 483 -2 m 127 -2 l 34 107 l 351 372 l 56 615 l 148 725 l 584 368 l 491 258 l 464 279 l 127 -2 z "},"¼":{"ha":978,"x_min":34,"x_max":944,"o":"m 944 -5 l 799 -5 l 799 91 l 509 91 l 509 235 l 558 235 q 592 331 580 279 q 605 435 605 383 l 750 435 q 714 235 750 336 l 799 235 l 799 441 l 944 441 l 944 -5 m 70 597 l 69 740 l 111 740 l 111 963 q 74 947 89 952 l 34 1086 q 62 1099 43 1088 q 98 1123 81 1110 q 122 1143 116 1135 l 256 1105 l 256 747 q 282 750 270 748 l 309 610 q 196 599 261 602 q 70 597 130 597 m 222 -41 l 98 31 l 734 1105 l 859 1033 l 222 -41 z "},"½":{"ha":937,"x_min":34,"x_max":903,"o":"m 184 -41 l 59 31 l 696 1105 l 821 1033 l 184 -41 m 501 -5 l 501 139 l 534 139 q 613 258 546 213 q 650 280 629 269 l 665 288 q 739 330 712 313 q 758 356 756 345 q 756 362 758 359 q 747 372 754 368 q 718 381 736 381 l 708 380 q 670 361 686 377 q 657 319 657 347 l 657 315 l 513 313 l 513 319 q 559 452 513 397 q 718 524 623 524 q 831 489 783 524 q 889 419 871 461 q 903 356 903 389 q 825 216 903 276 q 740 165 783 186 q 696 141 705 146 l 895 144 l 895 1 q 699 -1 800 1 q 501 -5 562 -5 m 70 597 l 69 740 l 111 740 l 111 963 q 74 947 89 951 l 34 1086 q 88 1116 51 1090 q 122 1143 115 1133 q 183 1176 148 1176 q 220 1165 203 1176 q 247 1139 238 1155 q 255 1105 255 1122 l 256 1105 l 256 747 q 282 750 270 748 l 309 610 q 197 600 261 602 q 78 597 132 597 l 70 597 z "},"¾":{"ha":1003,"x_min":34,"x_max":969,"o":"m 303 -41 l 178 31 l 815 1105 l 940 1033 l 303 -41 m 255 601 q 104 656 165 601 q 54 777 54 705 l 54 779 l 198 779 q 205 759 198 765 q 224 749 212 753 q 255 744 239 744 q 310 760 291 744 q 314 772 313 764 q 291 802 314 790 q 246 812 275 812 l 213 810 q 166 827 186 810 q 142 871 146 844 l 141 881 q 158 928 141 908 q 203 952 176 948 q 239 955 229 955 q 306 985 294 963 q 258 998 298 998 q 191 979 221 997 q 179 962 179 970 l 34 968 q 106 1095 39 1048 q 252 1140 176 1139 l 259 1140 q 363 1118 320 1140 q 429 1060 406 1095 q 451 985 451 1025 q 413 888 451 932 q 437 854 427 872 q 459 770 459 813 l 458 754 q 414 661 453 701 q 342 616 385 631 q 255 601 300 601 m 969 -5 l 824 -5 l 824 91 l 533 91 l 533 235 l 583 235 q 617 331 604 279 q 629 435 629 383 l 775 435 q 739 235 775 336 l 824 235 l 824 441 l 969 441 l 969 -5 z "},"¿":{"ha":843,"x_min":34,"x_max":809,"o":"m 394 -229 q 192 -174 279 -229 q 39 41 64 -96 q 34 101 34 72 q 61 237 34 174 q 133 356 87 301 q 233 459 178 412 q 345 547 288 507 q 453 621 401 587 l 473 635 q 551 690 523 668 q 584 744 573 707 q 597 871 597 787 l 597 893 l 742 895 l 742 873 q 723 704 742 765 q 644 581 699 623 q 534 503 601 546 q 418 423 479 467 q 303 328 357 379 q 214 219 249 277 q 179 98 179 161 q 267 -52 179 1 q 392 -85 319 -85 q 610 14 527 -85 q 665 186 665 82 l 664 205 l 808 212 l 809 185 q 724 -74 809 33 q 606 -174 674 -136 q 394 -229 507 -229 m 743 932 l 599 932 l 599 1044 l 743 1044 l 743 932 z "},"À":{"ha":1168,"x_min":34,"x_max":1134,"o":"m 115 -41 l 34 77 q 412 494 286 252 q 458 594 437 543 l 356 594 l 356 737 l 509 737 q 568 1093 557 908 l 713 1084 q 659 737 702 906 l 820 737 q 812 922 812 834 q 822 1097 812 1018 l 966 1080 q 958 922 958 1008 q 966 737 958 834 l 1128 737 l 1128 594 l 982 594 q 995 511 987 552 q 1054 267 1019 377 q 1134 97 1088 157 l 1018 11 q 920 212 962 86 q 836 594 864 379 l 613 594 q 540 429 582 509 q 115 -41 399 155 m 800 1157 l 511 1445 l 613 1546 l 903 1257 l 800 1157 z "},"Á":{"ha":1168,"x_min":34,"x_max":1134,"o":"m 116 -41 l 34 77 q 458 594 335 286 l 357 594 l 357 737 l 509 737 q 568 1093 557 908 l 713 1084 q 659 737 703 906 l 821 737 q 813 922 813 834 q 823 1097 813 1018 l 966 1080 q 958 922 958 1008 q 966 737 958 834 l 1128 737 l 1128 594 l 982 594 q 996 511 988 552 q 1054 267 1019 377 q 1134 97 1089 157 l 1019 11 q 920 212 962 86 q 836 594 865 379 l 614 594 q 116 -41 468 198 m 732 1157 l 629 1257 q 919 1546 774 1402 l 1021 1445 l 732 1157 z "},"Â":{"ha":1168,"x_min":34,"x_max":1134,"o":"m 115 -41 l 34 77 q 412 494 286 252 q 458 594 437 543 l 356 594 l 356 737 l 509 737 q 568 1093 557 908 l 713 1084 q 659 737 702 906 l 820 737 q 812 922 812 834 q 822 1097 812 1018 l 966 1080 q 958 919 958 1007 q 966 737 958 833 l 1128 737 l 1128 594 l 982 594 q 995 511 987 552 q 1054 267 1019 377 q 1134 97 1089 157 l 1018 11 q 920 212 962 86 q 836 594 864 379 l 614 594 q 540 429 582 509 q 115 -41 399 155 m 591 1145 l 496 1254 l 676 1406 l 644 1437 l 747 1538 l 1037 1250 l 935 1149 l 778 1304 l 591 1145 z "},"Ã":{"ha":1168,"x_min":34,"x_max":1134,"o":"m 115 -41 l 34 77 q 412 494 286 252 q 458 594 437 543 l 356 594 l 356 737 l 509 737 q 568 1093 557 908 l 713 1084 q 659 737 702 906 l 820 737 q 812 922 812 834 q 822 1097 812 1018 l 966 1080 q 958 922 958 1008 q 966 737 958 834 l 1128 737 l 1128 594 l 982 594 q 995 511 987 552 q 1054 267 1019 377 q 1134 97 1088 157 l 1018 11 q 920 212 962 86 q 836 594 864 379 l 613 594 q 540 429 582 509 q 115 -41 399 155 m 607 1183 l 463 1184 q 487 1298 464 1257 q 549 1355 509 1339 q 640 1371 589 1371 q 764 1354 703 1368 q 857 1340 821 1342 q 892 1350 878 1340 q 909 1388 906 1360 l 1054 1377 q 1022 1266 1047 1305 q 957 1212 997 1227 q 869 1196 918 1196 q 747 1211 819 1196 l 735 1213 q 640 1227 678 1227 q 617 1218 626 1227 q 607 1183 608 1209 z "},"Ä":{"ha":1168,"x_min":34,"x_max":1134,"o":"m 116 -41 l 34 77 q 412 494 287 252 q 458 594 437 543 l 357 594 l 357 737 l 509 737 q 568 1093 558 908 l 713 1084 q 659 737 703 906 l 821 737 q 813 920 813 833 q 823 1097 813 1017 l 966 1080 q 958 922 958 1008 q 966 737 958 834 l 1128 737 l 1128 594 l 982 594 q 1054 267 1008 409 q 1134 97 1089 157 l 1019 11 q 920 212 962 86 q 852 487 878 337 q 836 594 844 540 l 614 594 q 116 -41 468 198 m 703 1188 l 558 1188 l 558 1299 l 703 1299 l 703 1188 m 960 1188 l 815 1188 l 815 1299 l 960 1299 l 960 1188 z "},"Å":{"ha":1168,"x_min":34,"x_max":1134,"o":"m 774 1113 q 670 1141 718 1113 q 594 1215 623 1168 q 566 1319 566 1262 q 593 1422 566 1375 q 669 1497 621 1469 q 774 1526 716 1526 q 878 1498 831 1526 q 955 1424 926 1471 q 984 1319 984 1377 q 956 1217 984 1264 q 881 1141 928 1170 q 774 1113 833 1113 m 115 -41 l 34 77 q 412 494 286 252 q 458 594 437 543 l 356 594 l 356 737 l 509 737 q 568 1093 557 908 l 713 1084 q 659 737 702 906 l 820 737 q 812 922 812 834 q 822 1097 812 1018 l 966 1080 q 958 922 958 1008 q 966 737 958 834 l 1128 737 l 1128 594 l 982 594 q 995 511 987 552 q 1054 267 1019 377 q 1134 97 1089 157 l 1018 11 q 920 212 962 86 q 836 594 864 379 l 613 594 q 540 429 582 509 q 115 -41 399 155 m 774 1256 q 820 1275 801 1256 q 838 1319 838 1293 q 820 1364 838 1345 q 774 1383 801 1383 q 729 1364 748 1383 q 711 1319 711 1345 q 729 1275 711 1293 q 774 1256 748 1256 z "},"Æ":{"ha":1841,"x_min":34,"x_max":1807,"o":"m 116 -53 l 34 66 q 412 483 287 240 q 458 583 437 532 l 357 583 l 357 726 l 509 726 q 568 1082 558 897 l 713 1073 q 659 726 703 895 l 821 726 q 813 908 813 821 q 823 1086 813 1006 l 966 1069 q 958 910 958 998 q 966 726 958 823 l 1059 726 q 1064 1032 1064 861 q 1085 1083 1064 1062 q 1137 1103 1107 1103 l 1598 1103 q 1650 1083 1628 1103 q 1671 1032 1671 1062 l 1671 901 l 1525 901 l 1525 960 l 1208 960 q 1203 726 1207 831 l 1477 726 l 1477 583 l 1198 583 q 1193 389 1193 469 q 1200 271 1193 317 q 1224 200 1206 224 q 1285 163 1241 175 q 1407 147 1330 151 q 1598 144 1483 144 l 1807 144 l 1807 1 l 1584 1 q 1377 6 1463 1 q 1232 30 1291 12 q 1133 85 1172 47 l 1019 -1 q 920 200 962 75 q 852 476 878 326 q 836 583 844 528 l 614 583 q 116 -53 468 186 m 1059 241 q 1048 399 1048 307 q 1053 583 1048 479 l 982 583 q 1059 241 1009 390 z "},"Œ":{"ha":1682,"x_min":34,"x_max":1648,"o":"m 447 153 q 504 161 475 153 q 637 250 580 182 q 710 429 696 321 q 712 469 712 448 q 694 595 712 528 l 514 595 l 514 739 l 623 739 q 486 854 571 807 q 286 919 404 901 q 214 771 240 854 q 179 549 179 661 q 272 238 179 355 q 429 153 330 167 l 447 153 m 1648 6 l 1434 6 q 1200 13 1295 6 q 1044 46 1105 20 q 946 124 983 71 q 902 238 913 171 q 890 404 890 306 q 895 595 890 487 l 843 595 q 857 471 857 530 q 854 414 857 441 q 749 160 835 262 q 544 23 662 57 q 450 9 497 9 q 414 12 432 9 q 160 147 258 28 q 34 549 34 307 q 76 815 34 684 q 123 928 95 875 q 95 926 109 928 l 79 926 l 69 1068 q 158 1072 115 1072 q 226 1069 193 1072 q 342 1152 277 1121 l 397 1042 q 555 979 486 1019 q 793 739 715 890 l 901 739 q 906 1037 906 904 q 927 1088 906 1067 q 979 1109 948 1109 l 1440 1109 q 1491 1088 1470 1109 q 1512 1037 1512 1067 l 1512 905 l 1367 905 l 1367 966 l 1050 966 q 1045 739 1048 840 l 1464 739 l 1464 595 l 1040 595 q 1035 395 1035 477 q 1042 276 1035 323 q 1065 205 1048 229 q 1174 159 1090 169 q 1420 149 1257 149 q 1609 150 1592 149 l 1648 150 l 1648 6 z "},"Ç":{"ha":814,"x_min":34,"x_max":780,"o":"m 348 5 q 337 5 342 5 q 185 37 245 12 q 90 113 125 62 q 45 232 56 161 q 34 405 34 302 q 37 567 34 477 q 37 602 37 584 q 40 844 40 707 q 38 1022 40 927 q 37 1029 37 1025 q 59 1080 37 1059 q 110 1101 80 1101 l 572 1101 q 623 1080 602 1101 q 644 1029 644 1059 l 644 898 l 498 898 l 498 958 l 184 958 l 184 845 q 181 578 184 692 l 181 564 q 178 402 178 471 q 185 271 178 322 q 209 195 191 220 q 313 151 232 161 q 551 141 393 141 l 660 142 l 780 142 l 780 -1 l 566 -1 q 493 -1 528 -1 l 493 -19 l 593 -32 q 637 -55 621 -36 q 656 -100 654 -74 l 658 -130 q 624 -279 658 -214 q 546 -374 593 -338 q 434 -418 495 -412 l 418 -419 q 328 -398 372 -419 l 391 -270 q 416 -276 404 -276 l 421 -276 q 458 -260 440 -274 q 494 -216 479 -244 q 510 -165 505 -193 l 417 -153 q 368 -131 387 -151 q 348 -81 348 -111 l 348 5 z "},"È":{"ha":894,"x_min":34,"x_max":860,"o":"m 860 -1 l 646 -1 q 412 6 507 -1 q 256 38 317 13 q 158 117 195 64 q 114 231 125 163 q 102 397 102 298 q 107 587 102 479 l 34 587 l 34 730 l 113 730 q 118 1029 118 897 q 139 1080 118 1059 q 191 1101 161 1101 l 652 1101 q 703 1080 682 1101 q 724 1029 724 1059 l 724 898 l 579 898 l 579 958 l 262 958 q 257 730 260 833 l 676 730 l 676 587 l 252 587 q 247 387 247 469 q 254 269 247 315 q 277 197 260 222 q 386 152 302 161 q 632 142 469 142 l 860 142 l 860 -1 m 481 1157 l 191 1445 l 294 1546 l 583 1257 l 481 1157 z "},"É":{"ha":894,"x_min":34,"x_max":860,"o":"m 860 -1 l 646 -1 q 412 6 507 -1 q 256 38 317 13 q 158 117 195 64 q 114 231 125 163 q 102 397 102 298 q 107 587 102 479 l 34 587 l 34 730 l 113 730 q 118 1029 118 897 q 139 1080 118 1059 q 191 1101 161 1101 l 652 1101 q 703 1080 682 1101 q 724 1029 724 1059 l 724 898 l 579 898 l 579 958 l 262 958 q 257 730 260 833 l 676 730 l 676 587 l 252 587 q 247 387 247 469 q 254 269 247 315 q 277 197 260 222 q 386 152 302 161 q 632 142 469 142 l 860 142 l 860 -1 m 423 1157 l 321 1257 q 610 1546 465 1402 l 713 1445 l 423 1157 z "},"Ê":{"ha":894,"x_min":34,"x_max":860,"o":"m 860 -1 l 646 -1 q 412 6 507 -1 q 256 38 317 13 q 158 117 195 64 q 114 231 125 163 q 102 397 102 298 q 107 587 102 479 l 34 587 l 34 730 l 113 730 q 118 1029 118 897 q 139 1080 118 1059 q 191 1101 161 1101 l 652 1101 q 703 1080 682 1101 q 724 1029 724 1059 l 724 898 l 579 898 l 579 958 l 262 958 q 257 730 260 833 l 676 730 l 676 587 l 252 587 q 247 387 247 469 q 254 269 247 315 q 277 197 260 222 q 386 152 302 161 q 632 142 469 142 l 860 142 l 860 -1 m 253 1145 l 159 1254 l 338 1406 l 307 1437 l 410 1538 l 699 1250 l 597 1149 l 440 1304 l 253 1145 z "},"Ë":{"ha":894,"x_min":34,"x_max":860,"o":"m 860 -1 l 646 -1 q 412 6 507 -1 q 256 38 317 13 q 158 117 195 64 q 114 231 125 163 q 102 397 102 298 q 107 587 102 479 l 34 587 l 34 730 l 113 730 q 118 1029 118 897 q 139 1080 118 1059 q 191 1101 161 1101 l 652 1101 q 703 1080 682 1101 q 724 1029 724 1059 l 724 898 l 579 898 l 579 958 l 262 958 q 257 730 260 833 l 676 730 l 676 587 l 252 587 q 247 387 247 469 q 254 269 247 315 q 277 197 260 222 q 386 152 302 161 q 632 142 469 142 l 860 142 l 860 -1 m 391 1188 l 246 1188 l 246 1299 l 391 1299 l 391 1188 m 648 1188 l 503 1188 l 503 1299 l 648 1299 l 648 1188 z "},"Ì":{"ha":462,"x_min":-48,"x_max":428,"o":"m 83 -6 l 58 -6 l 57 136 l 136 138 l 136 888 q 34 884 79 884 l 34 1027 q 136 1031 79 1027 l 136 1086 l 281 1086 l 281 1057 q 326 1080 311 1067 l 428 979 q 281 908 373 928 l 281 151 q 304 159 294 155 l 354 24 q 215 -1 293 3 q 83 -6 146 -6 m 241 1157 l -48 1445 l 54 1546 l 344 1257 l 241 1157 z "},"Í":{"ha":462,"x_min":34,"x_max":528,"o":"m 83 -6 l 58 -6 l 57 136 l 136 138 l 136 888 q 34 884 79 884 l 34 1027 q 136 1031 79 1027 l 136 1086 l 281 1086 l 281 1057 q 326 1080 311 1067 l 428 979 q 281 908 373 928 l 281 151 q 304 159 294 155 l 354 24 q 215 -1 293 3 q 83 -6 146 -6 m 238 1157 l 136 1257 q 425 1546 280 1402 l 528 1445 l 238 1157 z "},"Î":{"ha":462,"x_min":-45,"x_max":496,"o":"m 83 -6 l 58 -6 l 57 136 l 136 138 l 136 888 q 34 884 79 884 l 34 1027 q 136 1031 79 1027 l 136 1086 l 281 1086 l 281 1057 q 326 1080 311 1067 l 428 979 q 281 908 373 928 l 281 151 q 304 159 294 155 l 354 24 q 215 -1 293 3 q 83 -6 146 -6 m 50 1145 l -45 1254 l 135 1406 l 103 1437 l 206 1538 l 496 1250 l 393 1149 l 237 1304 l 50 1145 z "},"Ï":{"ha":462,"x_min":32,"x_max":434,"o":"m 83 -6 l 58 -6 l 57 136 l 136 138 l 136 888 q 34 884 79 884 l 34 1027 q 136 1031 79 1027 l 136 1086 l 281 1086 l 281 1057 q 326 1080 311 1067 l 428 979 q 281 908 373 928 l 281 151 q 304 159 294 155 l 354 24 q 215 -1 293 3 q 83 -6 146 -6 m 177 1188 l 32 1188 l 32 1299 l 177 1299 l 177 1188 m 434 1188 l 289 1188 l 289 1299 l 434 1299 l 434 1188 z "},"Ð":{"ha":954,"x_min":-115,"x_max":920,"o":"m 245 375 l 245 143 q 294 142 270 142 q 544 185 448 142 q 688 314 640 229 q 756 530 737 400 q 776 831 776 659 q 774 963 776 895 l 34 963 l 34 1107 l 844 1107 q 893 1087 873 1107 q 916 1038 914 1067 q 920 835 920 930 q 897 496 920 644 q 814 243 874 348 q 618 60 744 121 q 294 -1 492 -1 q 169 4 235 -1 q 119 26 139 6 q 100 76 100 47 l 100 375 l -115 375 l -115 519 l 100 519 l 100 828 l 245 828 l 245 519 l 629 519 l 629 375 l 245 375 z "},"Ñ":{"ha":1104,"x_min":34,"x_max":1070,"o":"m 848 -17 q 788 349 802 100 q 552 571 671 462 l 391 720 q 262 219 351 448 q 150 3 209 82 l 34 89 q 131 279 84 156 q 212 549 177 401 q 261 847 247 703 q 132 981 196 912 l 239 1077 l 264 1050 q 262 1076 262 1063 l 406 1093 q 412 973 412 1038 q 410 902 412 939 q 651 675 529 787 l 785 551 q 802 804 787 683 q 846 1015 817 925 l 983 969 q 942 759 955 884 q 929 503 929 634 q 930 410 929 456 q 1070 265 1001 341 l 963 170 l 948 186 q 981 39 962 87 l 848 -17 m 462 1122 l 317 1122 q 341 1236 319 1196 q 404 1293 364 1277 q 495 1309 444 1309 q 618 1293 557 1306 q 712 1278 675 1280 q 747 1289 733 1278 q 764 1326 761 1299 l 909 1315 q 877 1204 902 1244 q 812 1150 852 1165 q 724 1135 772 1135 q 602 1149 673 1135 l 590 1152 q 495 1166 533 1166 q 472 1157 481 1166 q 462 1122 463 1147 z "},"Ò":{"ha":890,"x_min":34,"x_max":857,"o":"m 448 121 q 504 130 476 121 q 637 219 580 151 q 710 397 696 290 q 712 438 712 417 q 692 568 712 498 q 620 710 671 644 q 486 823 569 777 q 286 888 404 870 q 214 740 240 823 q 179 517 179 630 q 272 207 179 324 q 448 121 336 128 m 450 -22 q 414 -20 432 -22 q 160 116 258 -3 q 34 518 34 275 q 76 784 34 652 q 123 897 95 844 q 79 895 102 897 l 69 1038 q 158 1040 115 1040 q 226 1038 193 1040 q 342 1122 277 1090 l 397 1011 q 555 948 486 987 q 735 797 667 886 q 832 607 804 708 q 857 439 857 519 q 854 382 857 410 q 748 128 835 231 q 544 -8 662 26 q 450 -22 497 -22 m 463 1157 l 173 1445 l 275 1546 l 565 1257 l 463 1157 z "},"Ó":{"ha":890,"x_min":34,"x_max":857,"o":"m 448 121 q 504 130 476 121 q 637 219 580 151 q 710 397 696 290 q 712 438 712 417 q 692 568 712 498 q 620 710 671 644 q 486 823 569 777 q 286 888 404 870 q 214 740 240 823 q 179 517 179 630 q 272 207 179 324 q 448 121 336 128 m 450 -22 q 414 -20 432 -22 q 160 116 258 -3 q 34 518 34 275 q 76 784 34 652 q 123 897 95 844 q 79 895 102 897 l 69 1038 q 158 1040 115 1040 q 226 1038 193 1040 q 342 1122 277 1090 l 397 1011 q 555 948 486 987 q 735 797 667 886 q 832 607 804 708 q 857 439 857 519 q 854 382 857 410 q 748 128 835 231 q 544 -8 662 26 q 450 -22 497 -22 m 431 1157 l 328 1257 q 618 1546 473 1402 l 720 1445 l 431 1157 z "},"Ô":{"ha":890,"x_min":34,"x_max":857,"o":"m 448 121 q 504 130 476 121 q 637 219 580 151 q 710 397 696 290 q 712 438 712 417 q 692 568 712 498 q 620 710 671 644 q 486 823 569 777 q 286 888 404 870 q 214 740 240 823 q 179 517 179 630 q 272 207 179 324 q 448 121 336 128 m 450 -22 q 414 -20 432 -22 q 160 116 258 -3 q 34 518 34 275 q 76 784 34 652 q 123 897 95 844 q 79 895 102 897 l 69 1038 q 158 1040 115 1040 q 226 1038 193 1040 q 342 1122 277 1090 l 397 1011 q 555 948 486 987 q 735 797 667 886 q 832 607 804 708 q 857 439 857 519 q 854 382 857 410 q 748 128 835 231 q 544 -8 662 26 q 450 -22 497 -22 m 206 1145 l 112 1254 l 292 1406 l 260 1437 l 363 1538 l 652 1250 l 550 1149 l 393 1304 l 206 1145 z "},"Õ":{"ha":890,"x_min":34,"x_max":857,"o":"m 448 121 q 504 130 476 121 q 637 219 580 151 q 710 397 696 290 q 712 438 712 417 q 692 568 712 498 q 620 710 671 644 q 486 823 569 777 q 286 888 404 870 q 214 740 240 823 q 179 517 179 630 q 272 207 179 324 q 448 121 336 128 m 450 -22 q 414 -20 432 -22 q 160 116 258 -3 q 34 518 34 275 q 76 784 34 652 q 123 897 95 844 q 79 895 102 897 l 69 1038 q 158 1040 115 1040 q 226 1038 193 1040 q 342 1122 277 1090 l 397 1011 q 555 948 486 987 q 735 797 667 886 q 832 607 804 708 q 857 439 857 519 q 854 382 857 410 q 748 128 835 231 q 544 -8 662 26 q 450 -22 497 -22 m 231 1145 l 137 1254 l 317 1406 l 285 1437 l 388 1538 l 677 1250 l 575 1149 l 418 1304 l 231 1145 z "},"Ö":{"ha":890,"x_min":34,"x_max":857,"o":"m 448 121 q 504 130 476 121 q 637 219 580 151 q 710 397 696 290 q 712 438 712 417 q 692 568 712 498 q 620 710 671 644 q 486 823 569 777 q 286 888 404 870 q 214 740 240 823 q 179 517 179 630 q 272 207 179 324 q 448 121 336 128 m 450 -22 q 414 -20 432 -22 q 160 116 258 -3 q 34 518 34 275 q 76 784 34 652 q 123 897 95 844 q 79 895 102 897 l 69 1038 q 158 1040 115 1040 q 226 1038 193 1040 q 342 1122 277 1090 l 397 1011 q 555 948 486 987 q 735 797 667 886 q 832 607 804 708 q 857 439 857 519 q 854 382 857 410 q 748 128 835 231 q 544 -8 662 26 q 450 -22 497 -22 m 347 1188 l 202 1188 l 202 1299 l 347 1299 l 347 1188 m 604 1188 l 459 1188 l 459 1299 l 604 1299 l 604 1188 z "},"×":{"ha":632,"x_min":34,"x_max":598,"o":"m 130 163 l 34 270 l 209 424 l 47 567 l 143 673 l 317 519 l 474 658 l 571 551 l 427 424 l 598 272 l 502 165 l 318 328 l 130 163 z "},"Ø":{"ha":890,"x_min":34,"x_max":857,"o":"m 224 305 l 467 855 q 286 910 391 893 q 214 762 240 845 q 179 539 179 652 q 224 305 179 408 m 238 -24 l 105 33 l 155 145 q 34 541 34 302 q 76 806 34 675 q 123 919 95 865 l 79 917 l 69 1059 q 154 1063 113 1063 q 226 1060 191 1063 q 342 1143 277 1112 l 397 1033 q 525 986 467 1015 l 578 1108 l 711 1051 l 648 908 q 832 629 785 795 q 857 461 857 541 q 854 405 857 433 q 749 151 835 252 q 544 14 662 48 q 447 1 496 1 q 414 2 431 1 q 269 47 333 12 l 238 -24 m 448 143 q 504 152 475 143 q 638 242 580 174 q 710 419 696 311 q 712 460 712 439 q 693 590 712 521 q 587 769 665 689 l 328 180 q 429 144 372 151 l 448 143 z "},"Ù":{"ha":903,"x_min":34,"x_max":869,"o":"m 695 -161 l 559 -113 q 600 14 581 -48 l 106 14 q 55 35 77 14 q 34 86 34 56 l 34 1086 l 179 1086 l 179 157 l 634 157 q 667 477 667 322 l 667 504 q 559 1061 661 795 l 695 1110 q 812 485 810 810 q 782 157 812 325 l 869 157 l 869 14 l 749 14 q 695 -161 727 -72 m 365 1157 l 75 1445 l 178 1546 l 467 1257 l 365 1157 z "},"Ú":{"ha":903,"x_min":34,"x_max":869,"o":"m 695 -161 l 559 -113 q 600 14 581 -48 l 106 14 q 55 35 77 14 q 34 86 34 56 l 34 1086 l 179 1086 l 179 157 l 634 157 q 667 477 667 322 l 667 504 q 559 1061 661 795 l 695 1110 q 812 485 810 810 q 782 157 812 325 l 869 157 l 869 14 l 749 14 q 695 -161 727 -72 m 401 1157 l 299 1257 q 589 1546 444 1402 l 691 1445 l 401 1157 z "},"Û":{"ha":903,"x_min":34,"x_max":869,"o":"m 695 -161 l 559 -113 q 600 14 581 -48 l 106 14 q 55 35 77 14 q 34 86 34 56 l 34 1086 l 179 1086 l 179 157 l 634 157 q 667 477 667 322 l 667 504 q 559 1061 661 795 l 695 1110 q 812 485 810 810 q 782 157 812 325 l 869 157 l 869 14 l 749 14 q 695 -161 727 -72 m 228 1145 l 134 1254 l 313 1406 l 281 1437 l 385 1538 l 674 1250 l 572 1149 l 415 1304 l 228 1145 z "},"Ü":{"ha":903,"x_min":34,"x_max":869,"o":"m 695 -161 l 559 -113 q 600 14 581 -48 l 106 14 q 55 35 77 14 q 34 86 34 56 l 34 1086 l 179 1086 l 179 157 l 634 157 q 667 477 667 322 l 667 504 q 559 1061 661 795 l 695 1110 q 812 485 810 810 q 782 157 812 325 l 869 157 l 869 14 l 749 14 q 695 -161 727 -72 m 340 1188 l 195 1188 l 195 1299 l 340 1299 l 340 1188 m 597 1188 l 452 1188 l 452 1299 l 597 1299 l 597 1188 z "},"Ý":{"ha":830,"x_min":34,"x_max":796,"o":"m 205 -22 l 202 121 l 567 127 l 567 374 l 438 372 l 381 374 q 170 414 245 376 q 64 559 94 453 q 34 878 34 665 q 38 1088 34 970 l 183 1083 q 179 883 179 969 q 197 651 179 729 q 261 545 216 573 q 386 516 306 517 q 445 515 414 515 q 567 517 502 515 l 567 1086 l 712 1086 l 712 517 q 796 516 753 517 l 793 373 q 712 374 751 374 l 712 58 l 711 58 q 691 8 711 28 q 641 -14 671 -12 l 205 -22 m 387 1157 l 285 1257 q 574 1546 429 1402 l 677 1445 l 387 1157 z "},"Ÿ":{"ha":830,"x_min":34,"x_max":796,"o":"m 205 -22 l 202 121 l 567 127 l 567 374 l 438 372 l 381 374 q 170 414 245 376 q 64 559 94 453 q 34 878 34 665 q 38 1088 34 970 l 183 1083 q 179 883 179 969 q 197 651 179 729 q 261 545 216 573 q 386 516 306 517 q 445 515 414 515 q 567 517 502 515 l 567 1086 l 712 1086 l 712 517 q 796 516 753 517 l 793 373 q 712 374 751 374 l 712 58 l 711 58 q 691 8 711 28 q 641 -14 671 -12 l 205 -22 m 311 1188 l 166 1188 l 166 1299 l 311 1299 l 311 1188 m 568 1188 l 423 1188 l 423 1299 l 568 1299 l 568 1188 z "},"Þ":{"ha":816,"x_min":34,"x_max":782,"o":"m 297 5 l 152 5 l 152 201 l 45 201 l 45 345 l 152 345 l 152 738 l 34 738 l 34 882 l 152 882 l 152 1080 l 297 1080 l 297 882 l 709 882 q 761 861 739 882 q 782 810 782 840 l 782 273 q 761 222 782 243 q 709 201 739 201 l 297 201 l 297 5 m 637 345 l 637 738 l 297 738 l 297 345 l 637 345 z "},"ß":{"ha":867,"x_min":34,"x_max":833,"o":"m 294 5 l 149 5 l 149 180 q 34 203 83 191 l 69 342 q 149 326 104 334 l 149 982 q 196 1048 149 1028 q 351 1085 281 1085 q 408 1080 380 1085 q 547 996 494 1061 q 610 803 610 918 q 589 674 610 741 q 743 599 684 651 q 823 481 802 547 q 833 412 833 447 q 823 345 833 378 q 703 204 796 258 q 427 154 610 154 q 294 161 359 155 l 294 5 m 428 297 q 632 329 572 297 q 689 411 689 362 q 648 491 689 455 q 483 542 591 542 q 446 552 464 542 q 419 579 429 562 q 410 614 410 595 q 420 649 410 631 q 465 803 465 732 q 433 906 465 867 q 351 943 404 943 q 294 933 326 943 l 294 304 q 428 297 359 298 z "},"à":{"ha":827,"x_min":34,"x_max":793,"o":"m 474 -2 l 109 -2 q 59 18 79 -2 q 36 67 38 37 q 34 172 34 125 q 43 309 34 254 q 78 401 53 364 q 180 474 115 456 q 344 491 243 491 l 565 490 l 565 608 l 302 608 l 302 582 l 157 582 l 157 680 q 178 730 157 709 q 229 751 199 751 l 637 751 q 689 730 667 751 q 710 680 710 709 l 710 490 l 792 490 l 793 347 l 710 347 l 710 70 l 565 70 l 565 348 l 332 349 q 198 320 217 349 q 178 186 178 292 l 179 141 l 474 141 l 474 -2 m 470 790 l 180 1078 l 283 1179 l 572 890 l 470 790 z "},"á":{"ha":827,"x_min":34,"x_max":793,"o":"m 474 -2 l 109 -2 q 59 18 79 -2 q 36 67 38 37 q 34 172 34 125 q 43 309 34 254 q 78 401 53 364 q 180 474 115 456 q 344 491 243 491 l 565 490 l 565 608 l 302 608 l 302 582 l 157 582 l 157 680 q 178 730 157 709 q 229 751 199 751 l 637 751 q 689 730 667 751 q 710 680 710 709 l 710 490 l 792 490 l 793 347 l 710 347 l 710 70 l 565 70 l 565 348 l 332 349 q 198 320 217 349 q 178 186 178 292 l 179 141 l 474 141 l 474 -2 m 437 794 l 335 895 q 625 1183 479 1039 l 727 1082 l 437 794 z "},"â":{"ha":827,"x_min":34,"x_max":793,"o":"m 474 -2 l 109 -2 q 59 18 79 -2 q 36 67 38 37 q 34 172 34 125 q 43 309 34 254 q 78 401 53 364 q 180 474 115 456 q 344 491 243 491 l 565 490 l 565 608 l 302 608 l 302 582 l 157 582 l 157 680 q 178 730 157 709 q 229 751 199 751 l 637 751 q 689 730 667 751 q 710 680 710 709 l 710 490 l 792 490 l 793 347 l 710 347 l 710 70 l 565 70 l 565 348 l 332 349 q 198 320 217 349 q 178 186 178 292 l 179 141 l 474 141 l 474 -2 m 268 786 l 174 895 l 353 1046 l 321 1078 l 425 1179 l 714 890 l 612 789 l 455 945 l 268 786 z "},"ã":{"ha":827,"x_min":34,"x_max":793,"o":"m 474 -2 l 109 -2 q 59 18 79 -2 q 36 67 38 37 q 34 172 34 125 q 43 309 34 254 q 78 401 53 364 q 180 474 115 456 q 344 491 243 491 l 565 490 l 565 608 l 302 608 l 302 582 l 157 582 l 157 680 q 178 730 157 709 q 229 751 199 751 l 637 751 q 689 730 667 751 q 710 680 710 709 l 710 490 l 792 490 l 793 347 l 710 347 l 710 70 l 565 70 l 565 348 l 332 349 q 198 320 217 349 q 178 186 178 292 l 179 141 l 474 141 l 474 -2 m 291 835 l 146 836 q 171 949 148 909 q 233 1006 193 990 q 324 1022 273 1022 q 448 1006 387 1019 q 541 991 505 994 q 576 1002 562 991 q 593 1040 590 1012 l 738 1028 q 706 918 731 957 q 641 863 681 878 q 553 848 602 848 q 431 863 503 848 l 419 865 q 324 879 362 879 q 301 870 310 879 q 291 835 292 861 z "},"ä":{"ha":827,"x_min":34,"x_max":793,"o":"m 474 -2 l 109 -2 q 59 18 79 -2 q 36 67 38 37 q 34 172 34 125 q 43 309 34 254 q 78 401 53 364 q 180 474 115 456 q 344 491 243 491 l 565 490 l 565 608 l 302 608 l 302 582 l 157 582 l 157 680 q 178 730 157 709 q 229 751 199 751 l 637 751 q 689 730 667 751 q 710 680 710 709 l 710 490 l 792 490 l 793 347 l 710 347 l 710 70 l 565 70 l 565 348 l 332 349 q 198 320 217 349 q 178 186 178 292 l 179 141 l 474 141 l 474 -2 m 373 818 l 228 818 l 228 929 l 373 929 l 373 818 m 630 818 l 485 818 l 485 929 l 630 929 l 630 818 z "},"å":{"ha":827,"x_min":34,"x_max":793,"o":"m 474 -2 l 109 -2 q 59 18 79 -2 q 36 67 38 37 q 34 172 34 125 q 43 309 34 254 q 78 401 53 364 q 180 474 115 456 q 344 491 243 491 l 565 490 l 565 608 l 302 608 l 302 582 l 157 582 l 157 680 q 178 730 157 709 q 229 751 199 751 l 637 751 q 689 730 667 751 q 710 680 710 709 l 710 490 l 792 490 l 793 347 l 710 347 l 710 70 l 565 70 l 565 348 l 332 349 q 198 320 217 349 q 178 186 178 292 l 179 141 l 474 141 l 474 -2 m 455 786 q 351 814 399 786 q 275 888 303 842 q 246 992 246 935 q 274 1095 246 1048 q 349 1171 302 1142 q 455 1199 397 1199 q 559 1172 511 1199 q 635 1097 606 1144 q 665 992 665 1050 q 637 890 665 937 q 562 814 609 843 q 455 786 514 786 m 455 929 q 500 948 481 929 q 519 992 519 966 q 500 1037 519 1019 q 455 1056 481 1056 q 410 1037 429 1056 q 391 992 391 1019 q 410 948 391 966 q 455 929 429 929 z "},"æ":{"ha":1352,"x_min":34,"x_max":1318,"o":"m 1318 8 l 1169 8 q 992 13 1064 8 q 874 35 921 18 q 799 89 827 52 q 761 174 770 125 q 751 296 751 224 l 752 355 l 710 355 l 710 81 l 565 81 l 565 359 l 336 360 q 199 333 217 360 q 178 197 178 303 l 179 153 l 474 153 l 474 9 l 109 9 q 59 29 79 9 q 37 79 39 49 q 34 189 34 140 q 43 322 34 269 q 78 413 53 376 q 180 486 115 467 q 344 503 243 503 q 565 502 531 503 l 565 620 l 302 620 l 302 594 l 157 594 l 157 691 q 178 742 157 721 q 229 763 199 763 l 637 763 q 689 742 667 763 q 710 691 710 721 l 710 501 l 755 501 l 756 587 q 755 682 756 632 l 755 690 q 776 741 755 720 q 827 762 798 762 l 1227 762 q 1279 741 1257 762 q 1300 690 1300 720 l 1300 431 q 1279 380 1300 401 q 1228 359 1258 359 l 897 357 l 896 292 q 899 218 896 246 q 911 178 903 190 q 982 156 925 161 q 1152 151 1039 151 l 1265 151 q 1276 152 1274 151 l 1318 152 l 1318 8 m 900 499 l 1155 502 l 1155 618 l 901 618 l 900 499 z "},"œ":{"ha":1305,"x_min":34,"x_max":1271,"o":"m 345 3 q 320 5 333 3 q 127 108 197 21 q 34 401 34 225 q 64 595 34 499 q 89 656 75 626 l 79 787 q 141 789 111 789 q 182 788 162 789 q 262 844 218 822 l 297 772 q 555 621 463 733 q 627 494 604 562 l 709 495 l 709 582 q 708 680 709 628 l 708 687 q 729 738 708 717 q 781 759 751 759 l 1181 759 q 1232 738 1211 759 q 1253 687 1253 717 l 1253 427 q 1233 378 1253 398 q 1181 356 1212 357 l 850 353 l 849 289 q 852 215 849 243 q 865 175 856 187 q 936 153 878 157 q 1106 148 993 148 l 1271 149 l 1271 5 l 1118 5 q 943 10 1014 5 q 827 32 873 14 q 752 85 781 49 q 714 171 723 121 q 705 293 705 221 l 705 352 l 653 352 q 651 306 653 329 q 573 117 637 193 q 418 14 507 39 q 345 3 382 3 m 853 496 l 1108 498 l 1108 616 l 854 616 l 853 496 m 345 146 q 378 151 361 146 q 460 207 426 165 q 507 320 498 252 q 508 348 508 334 q 496 431 508 387 q 448 524 481 481 q 361 597 415 567 q 243 637 312 625 q 202 551 218 599 q 179 403 179 477 q 239 199 179 273 q 345 146 278 150 z "},"ç":{"ha":642,"x_min":34,"x_max":608,"o":"m 265 3 q 158 25 201 9 q 81 80 111 43 q 44 161 54 114 q 34 274 34 208 q 38 414 34 334 q 39 452 39 432 q 45 673 44 547 q 45 680 45 677 q 66 730 45 709 q 117 751 87 751 l 518 751 q 569 730 548 751 q 591 680 591 709 l 591 566 l 446 566 l 446 608 l 189 608 q 182 409 187 492 l 182 401 q 178 268 178 321 q 194 169 178 191 q 268 145 208 151 q 444 140 327 140 l 608 141 l 608 -2 l 410 -2 l 410 -22 l 511 -35 q 555 -58 538 -39 q 574 -103 572 -77 l 575 -134 q 541 -282 575 -217 q 463 -378 511 -342 q 351 -422 412 -416 l 335 -422 q 245 -401 290 -422 l 309 -273 q 334 -279 321 -279 l 338 -279 q 376 -264 357 -277 q 411 -219 397 -248 q 427 -169 422 -197 l 334 -157 q 285 -134 304 -155 q 265 -85 265 -114 l 265 3 z "},"è":{"ha":724,"x_min":34,"x_max":690,"o":"m 690 -4 l 542 -4 q 365 1 437 -4 q 247 23 294 5 q 171 76 200 40 q 133 162 142 113 q 124 284 124 212 l 125 343 l 35 342 l 34 486 l 128 486 l 129 587 l 128 670 l 127 678 q 149 729 127 708 q 200 750 170 750 l 600 750 q 652 729 631 750 q 673 678 673 708 l 673 418 q 652 368 673 389 q 601 347 631 347 l 270 345 l 269 273 q 284 165 269 187 q 355 144 298 149 q 525 139 412 139 l 638 139 l 648 140 l 690 140 l 690 -4 m 273 487 l 528 490 l 528 606 l 273 606 l 273 487 m 470 790 l 180 1078 l 283 1179 l 572 890 l 470 790 z "},"é":{"ha":724,"x_min":34,"x_max":727,"o":"m 690 -4 l 542 -4 q 365 1 437 -4 q 247 23 294 5 q 171 76 200 40 q 133 162 142 113 q 124 284 124 212 l 125 343 l 35 342 l 34 486 l 128 486 l 129 587 l 128 670 l 127 678 q 149 729 127 708 q 200 750 170 750 l 600 750 q 652 729 631 750 q 673 678 673 708 l 673 418 q 652 368 673 389 q 601 347 631 347 l 270 345 l 269 273 q 284 165 269 187 q 355 144 298 149 q 525 139 412 139 l 638 139 l 648 140 l 690 140 l 690 -4 m 273 487 l 528 490 l 528 606 l 273 606 l 273 487 m 437 794 l 335 895 q 625 1183 479 1039 l 727 1082 l 437 794 z "},"ê":{"ha":724,"x_min":34,"x_max":714,"o":"m 690 -4 l 542 -4 q 365 1 437 -4 q 247 23 294 5 q 171 76 200 40 q 133 162 142 113 q 124 284 124 212 l 125 343 l 35 342 l 34 486 l 128 486 l 129 587 l 128 670 l 127 678 q 149 729 127 708 q 200 750 170 750 l 600 750 q 652 729 631 750 q 673 678 673 708 l 673 418 q 652 368 673 389 q 601 347 631 347 l 270 345 l 269 273 q 284 165 269 187 q 355 144 298 149 q 525 139 412 139 l 638 139 l 648 140 l 690 140 l 690 -4 m 273 487 l 528 490 l 528 606 l 273 606 l 273 487 m 268 786 l 174 895 l 353 1046 l 321 1078 l 425 1179 l 714 890 l 612 789 l 455 945 l 268 786 z "},"ë":{"ha":724,"x_min":34,"x_max":690,"o":"m 690 -4 l 542 -4 q 365 1 437 -4 q 247 23 294 5 q 171 76 200 40 q 133 162 142 113 q 124 284 124 212 l 125 343 l 35 342 l 34 486 l 128 486 l 129 587 l 128 670 l 127 678 q 149 729 127 708 q 200 750 170 750 l 600 750 q 652 729 631 750 q 673 678 673 708 l 673 418 q 652 368 673 389 q 601 347 631 347 l 270 345 l 269 273 q 284 165 269 187 q 355 144 298 149 q 525 139 412 139 l 638 139 l 648 140 l 690 140 l 690 -4 m 273 487 l 528 490 l 528 606 l 273 606 l 273 487 m 373 818 l 228 818 l 228 929 l 373 929 l 373 818 m 630 818 l 485 818 l 485 929 l 630 929 l 630 818 z "},"ì":{"ha":365,"x_min":-92,"x_max":331,"o":"m 249 638 l 104 638 l 104 724 l 249 724 l 249 638 m 249 14 l 104 14 l 104 450 l 35 449 l 34 591 l 44 592 l 62 592 q 176 595 114 592 q 282 614 237 599 l 331 479 q 249 460 294 467 l 249 14 m 198 790 l -92 1078 l 11 1179 l 300 890 l 198 790 z "},"í":{"ha":365,"x_min":34,"x_max":480,"o":"m 249 638 l 104 638 l 104 724 l 249 724 l 249 638 m 249 14 l 104 14 l 104 450 l 35 449 l 34 591 l 44 592 l 62 592 q 176 595 114 592 q 282 614 237 599 l 331 479 q 249 460 294 467 l 249 14 m 191 794 l 88 895 q 378 1183 233 1039 l 480 1082 l 191 794 z "},"î":{"ha":365,"x_min":-81,"x_max":460,"o":"m 249 638 l 104 638 l 104 724 l 249 724 l 249 638 m 249 14 l 104 14 l 104 450 l 35 449 l 34 591 l 44 592 l 62 592 q 176 595 114 592 q 282 614 237 599 l 331 479 q 249 460 294 467 l 249 14 m 14 786 l -81 895 l 99 1046 l 67 1078 l 170 1179 l 460 890 l 357 789 l 201 945 l 14 786 z "},"ï":{"ha":365,"x_min":-12,"x_max":391,"o":"m 249 638 l 104 638 l 104 724 l 249 724 l 249 638 m 249 14 l 104 14 l 104 450 l 35 449 l 34 591 l 44 592 l 62 592 q 176 595 114 592 q 282 614 237 599 l 331 479 q 249 460 294 467 l 249 14 m 134 818 l -12 818 l -12 929 l 134 929 l 134 818 m 391 818 l 245 818 l 245 929 l 391 929 l 391 818 z "},"ð":{"ha":889,"x_min":34,"x_max":855,"o":"m 451 159 q 565 193 514 159 q 650 285 616 227 q 703 453 694 358 q 705 492 705 473 q 677 650 705 570 q 661 691 670 671 l 494 691 q 342 669 415 691 q 227 593 273 647 q 179 465 182 536 l 179 453 q 206 328 179 391 q 293 214 237 260 q 439 159 354 165 l 451 159 m 532 1035 q 543 1029 538 1031 q 745 834 673 943 l 855 834 l 855 691 l 817 691 q 850 492 850 590 q 848 441 850 467 q 776 212 836 314 q 640 69 723 123 q 451 15 556 15 l 432 16 q 202 103 298 26 q 73 271 117 172 q 34 452 34 359 l 35 473 q 113 682 40 588 q 295 804 189 771 l 199 899 l 289 991 q 188 1018 241 1006 l 219 1158 q 399 1103 317 1135 l 564 1271 l 666 1171 l 532 1035 m 311 809 q 397 827 353 822 q 503 834 450 834 l 557 834 q 429 930 505 887 l 311 809 z "},"ñ":{"ha":695,"x_min":34,"x_max":687,"o":"m 142 -15 q 56 400 60 182 l 56 412 q 73 610 56 508 l 34 610 l 34 753 l 106 753 q 142 856 122 804 l 277 805 l 258 753 l 589 753 q 640 732 618 753 q 661 681 661 711 l 661 12 l 516 12 l 516 610 l 220 610 q 200 412 200 507 l 200 401 q 277 39 205 212 l 142 -15 m 240 882 l 96 883 q 120 997 97 956 q 182 1054 142 1038 q 273 1069 222 1069 q 397 1053 336 1067 q 490 1039 454 1041 q 525 1049 511 1039 q 542 1087 539 1059 l 687 1076 q 655 965 680 1004 q 590 910 630 926 q 503 895 551 895 q 380 910 452 895 l 368 912 q 273 926 311 926 q 250 917 259 926 q 240 882 241 908 z "},"ò":{"ha":687,"x_min":34,"x_max":653,"o":"m 345 140 q 378 146 361 140 q 461 202 425 159 q 507 314 498 245 q 508 340 508 327 q 495 425 508 380 q 448 517 481 475 q 242 631 380 606 q 202 545 218 593 q 179 398 179 473 q 239 193 179 267 q 345 140 278 144 m 347 -2 q 319 -1 333 -2 q 127 102 197 14 q 34 395 34 218 q 64 589 34 493 q 89 650 75 621 l 79 781 q 142 783 112 783 l 182 782 q 262 838 218 816 l 297 766 q 564 605 471 725 q 635 465 614 539 q 653 343 653 401 q 650 300 653 321 q 573 111 637 186 q 418 8 507 33 q 347 -2 383 -2 m 379 790 l 90 1078 l 192 1179 l 481 890 l 379 790 z "},"ó":{"ha":687,"x_min":34,"x_max":653,"o":"m 345 140 q 378 146 361 140 q 461 202 425 159 q 507 314 498 245 q 508 340 508 327 q 495 425 508 380 q 448 517 481 475 q 242 631 380 606 q 202 545 218 593 q 179 398 179 473 q 239 193 179 267 q 345 140 278 144 m 347 -2 q 319 -1 333 -2 q 127 102 197 14 q 34 395 34 218 q 64 589 34 493 q 89 650 75 621 l 79 781 q 142 783 112 783 l 182 782 q 262 838 218 816 l 297 766 q 564 605 471 725 q 635 465 614 539 q 653 343 653 401 q 650 300 653 321 q 573 111 637 186 q 418 8 507 33 q 347 -2 383 -2 m 339 794 l 237 895 q 526 1183 381 1039 l 629 1082 l 339 794 z "},"ô":{"ha":687,"x_min":18,"x_max":653,"o":"m 345 140 q 378 146 361 140 q 461 202 425 159 q 507 314 498 245 q 508 340 508 327 q 495 425 508 380 q 448 517 481 475 q 242 631 380 606 q 202 545 218 593 q 179 398 179 473 q 239 193 179 267 q 345 140 278 144 m 347 -2 q 319 -1 333 -2 q 127 102 197 14 q 34 395 34 218 q 64 589 34 493 q 89 650 75 621 l 79 781 q 142 783 112 783 l 182 782 q 262 838 218 816 l 297 766 q 564 605 471 725 q 635 465 614 539 q 653 343 653 401 q 650 300 653 321 q 573 111 637 186 q 418 8 507 33 q 347 -2 383 -2 m 112 786 l 18 895 l 197 1046 l 165 1078 l 269 1179 l 558 890 l 456 789 l 299 945 l 112 786 z "},"õ":{"ha":687,"x_min":12,"x_max":653,"o":"m 345 140 q 378 146 361 140 q 461 202 425 159 q 507 314 498 245 q 508 340 508 327 q 495 425 508 380 q 448 517 481 475 q 242 631 380 606 q 202 545 218 593 q 179 398 179 473 q 239 193 179 267 q 345 140 278 144 m 347 -2 q 319 -1 333 -2 q 127 102 197 14 q 34 395 34 218 q 64 589 34 493 q 89 650 75 621 l 79 781 q 142 783 112 783 l 182 782 q 262 838 218 816 l 297 766 q 564 605 471 725 q 635 465 614 539 q 653 343 653 401 q 650 300 653 321 q 573 111 637 186 q 418 8 507 33 q 347 -2 383 -2 m 157 835 l 12 836 q 36 949 14 909 q 99 1006 59 990 q 190 1022 138 1022 q 313 1006 252 1019 q 407 991 370 994 q 442 1002 428 991 q 458 1040 456 1012 l 604 1028 q 572 918 597 957 q 507 863 547 878 q 419 848 467 848 q 296 863 368 848 l 285 865 q 190 879 228 879 q 166 870 176 879 q 157 835 157 861 z "},"ö":{"ha":687,"x_min":34,"x_max":653,"o":"m 345 140 q 378 146 361 140 q 461 202 425 159 q 507 314 498 245 q 508 340 508 327 q 495 425 508 380 q 448 517 481 475 q 242 631 380 606 q 202 545 218 593 q 179 398 179 473 q 239 193 179 267 q 345 140 278 144 m 347 -2 q 319 -1 333 -2 q 127 102 197 14 q 34 395 34 218 q 64 589 34 493 q 89 650 75 621 l 79 781 q 142 783 112 783 l 182 782 q 262 838 218 816 l 297 766 q 564 605 471 725 q 635 465 614 539 q 653 343 653 401 q 650 300 653 321 q 573 111 637 186 q 418 8 507 33 q 347 -2 383 -2 m 228 843 l 83 843 l 83 954 l 228 954 l 228 843 m 485 843 l 340 843 l 340 954 l 485 954 l 485 843 z "},"÷":{"ha":612,"x_min":34,"x_max":578,"o":"m 379 579 l 234 579 l 234 690 l 379 690 l 379 579 m 578 338 l 34 338 l 34 482 l 578 482 l 578 338 m 379 130 l 234 130 l 234 241 l 379 241 l 379 130 z "},"ø":{"ha":711,"x_min":34,"x_max":677,"o":"m 209 304 l 398 586 l 380 597 q 261 637 330 625 q 221 551 237 599 q 197 401 197 477 q 209 304 197 350 m 155 -35 l 34 45 l 111 159 q 53 404 53 264 q 107 656 53 536 l 98 787 q 159 789 130 789 q 201 788 180 789 q 281 844 236 822 l 316 772 q 479 705 406 751 l 557 821 l 677 742 l 586 606 q 654 471 633 543 q 671 348 671 406 q 669 305 671 326 q 590 116 655 193 q 437 14 526 39 q 364 3 401 3 q 338 5 351 3 q 211 50 266 14 l 155 -35 m 364 146 q 397 151 380 146 q 480 208 444 165 q 526 320 516 252 q 527 345 527 332 q 514 431 527 385 q 498 475 508 454 l 292 168 q 364 146 323 149 z "},"ù":{"ha":695,"x_min":34,"x_max":661,"o":"m 553 -113 l 418 -62 q 437 -10 428 -36 l 107 -10 q 55 11 77 -10 q 34 61 34 32 l 34 731 l 180 731 l 180 133 l 475 133 q 495 331 495 235 q 418 704 494 523 l 553 758 q 640 322 637 554 q 623 133 640 229 l 661 133 l 661 -10 l 589 -10 q 553 -113 574 -61 m 328 790 l 39 1078 l 141 1179 l 431 890 l 328 790 z "},"ú":{"ha":695,"x_min":34,"x_max":661,"o":"m 553 -113 l 418 -62 q 437 -10 428 -36 l 107 -10 q 55 11 77 -10 q 34 61 34 32 l 34 731 l 180 731 l 180 133 l 475 133 q 495 331 495 235 q 418 704 494 523 l 553 758 q 640 322 637 554 q 623 133 640 229 l 661 133 l 661 -10 l 589 -10 q 553 -113 574 -61 m 325 794 l 222 895 q 512 1183 367 1039 l 614 1082 l 325 794 z "},"û":{"ha":695,"x_min":34,"x_max":661,"o":"m 553 -113 l 418 -62 q 437 -10 428 -36 l 107 -10 q 55 11 77 -10 q 34 61 34 32 l 34 731 l 180 731 l 180 133 l 475 133 q 495 331 495 235 q 418 704 494 523 l 553 758 q 640 322 637 554 q 623 133 640 229 l 661 133 l 661 -10 l 589 -10 q 553 -113 574 -61 m 149 786 l 54 895 l 234 1046 l 202 1078 l 305 1179 l 595 890 l 492 789 l 336 945 l 149 786 z "},"ü":{"ha":695,"x_min":34,"x_max":661,"o":"m 553 -113 l 418 -62 q 437 -10 428 -36 l 107 -10 q 55 11 77 -10 q 34 61 34 32 l 34 731 l 180 731 l 180 133 l 475 133 q 495 331 495 235 q 418 704 494 523 l 553 758 q 640 322 637 554 q 623 133 640 229 l 661 133 l 661 -10 l 589 -10 q 553 -113 574 -61 m 224 818 l 79 818 l 79 929 l 224 929 l 224 818 m 481 818 l 336 818 l 336 929 l 481 929 l 481 818 z "},"ý":{"ha":830,"x_min":34,"x_max":796,"o":"m 205 -364 l 202 -221 l 566 -214 l 566 12 l 444 11 q 376 12 408 11 q 168 52 243 14 q 63 190 92 89 q 34 493 34 292 q 38 694 34 582 l 182 689 q 178 505 178 584 q 196 284 178 358 q 259 183 214 210 q 382 155 304 156 q 441 154 410 154 q 566 155 503 154 l 566 692 l 711 692 l 711 156 l 740 155 q 796 154 768 155 l 792 12 q 711 13 751 13 l 711 -284 q 691 -334 711 -313 q 640 -356 671 -355 l 205 -364 m 368 794 l 266 895 q 555 1183 410 1039 l 658 1082 l 368 794 z "},"þ":{"ha":723,"x_min":34,"x_max":689,"o":"m 302 5 l 157 5 l 157 191 l 45 191 l 45 334 l 157 334 l 157 572 l 34 572 l 34 715 l 157 715 l 157 1080 l 302 1080 l 302 715 l 616 715 q 668 694 646 715 q 689 643 689 673 l 689 262 q 668 212 689 233 q 616 191 646 191 l 302 191 l 302 5 m 544 334 l 544 572 l 302 572 l 302 334 l 544 334 z "},"ÿ":{"ha":830,"x_min":34,"x_max":796,"o":"m 205 -364 l 202 -221 l 566 -214 l 566 12 l 444 11 q 376 12 408 11 q 168 52 243 14 q 63 190 92 89 q 34 493 34 292 q 38 694 34 582 l 182 689 q 178 505 178 584 q 196 284 178 358 q 259 183 214 210 q 382 155 304 156 q 441 154 410 154 q 566 155 503 154 l 566 692 l 711 692 l 711 156 l 740 155 q 796 154 768 155 l 792 12 q 711 13 751 13 l 711 -284 q 691 -334 711 -313 q 640 -356 671 -355 l 205 -364 m 373 818 l 228 818 l 228 929 l 373 929 l 373 818 m 630 818 l 485 818 l 485 929 l 630 929 l 630 818 z "},"ı":{"ha":213,"x_min":34,"x_max":179,"o":"m 179 5 l 34 5 l 34 752 l 179 752 l 179 5 z "},"ˆ":{"ha":608,"x_min":34,"x_max":574,"o":"m 128 823 l 34 931 l 214 1084 l 182 1115 l 285 1215 l 574 927 l 471 827 l 315 982 l 128 823 z "},"ˇ":{"ha":608,"x_min":34,"x_max":574,"o":"m 285 827 l 182 927 l 214 958 l 34 1110 l 128 1219 l 315 1060 l 471 1215 l 574 1115 l 285 827 z "},"ˉ":{"ha":612,"x_min":34,"x_max":578,"o":"m 578 940 l 34 940 l 34 1084 l 578 1084 l 578 940 z "},"˘":{"ha":561,"x_min":34,"x_max":527,"o":"m 275 787 q 171 813 221 788 q 101 870 132 833 q 52 958 71 906 q 34 1076 34 1009 l 34 1080 l 178 1078 l 178 1076 q 196 987 178 1021 q 239 939 213 953 q 277 930 258 930 q 362 988 331 930 q 382 1080 381 1023 l 527 1078 q 483 908 524 975 q 380 811 442 842 q 275 787 330 787 z "},"˙":{"ha":213,"x_min":34,"x_max":179,"o":"m 179 968 l 34 968 l 34 1080 l 179 1080 l 179 968 z "},"˚":{"ha":486,"x_min":34,"x_max":452,"o":"m 243 785 q 139 812 187 785 q 63 886 92 840 q 34 991 34 933 q 62 1094 34 1046 q 138 1169 90 1141 q 243 1198 185 1198 q 347 1170 299 1198 q 424 1096 395 1143 q 452 991 452 1049 q 424 888 452 935 q 349 813 396 841 q 243 785 301 785 m 243 928 q 289 946 270 928 q 307 991 307 965 q 289 1036 307 1017 q 243 1054 270 1054 q 198 1036 217 1054 q 179 991 179 1017 q 198 946 179 965 q 243 928 217 928 z "},"˛":{"ha":372,"x_min":34,"x_max":338,"o":"m 254 -234 q 81 -157 143 -234 q 35 -34 38 -102 l 34 -20 q 62 92 34 39 q 138 174 90 142 q 256 206 187 206 q 286 205 271 206 l 271 62 l 259 63 q 217 52 234 63 q 190 24 199 41 q 179 -22 179 2 q 194 -68 180 -50 q 256 -92 213 -92 q 304 -85 277 -92 l 338 -224 q 254 -234 293 -234 z "},"˜":{"ha":838,"x_min":34,"x_max":804,"o":"m 621 898 l 596 899 q 404 938 505 907 q 237 972 309 966 l 231 972 q 179 923 181 972 l 34 929 q 63 1041 38 1000 q 129 1099 87 1082 q 224 1116 170 1116 q 430 1078 313 1114 l 441 1076 q 604 1041 533 1048 l 610 1041 q 644 1050 631 1041 q 659 1083 657 1059 l 804 1076 q 776 969 800 1008 q 712 914 752 930 q 621 898 672 898 z "},"˝":{"ha":538,"x_min":34,"x_max":504,"o":"m 165 805 l 34 865 l 149 1109 l 280 1049 l 165 805 m 389 805 l 258 865 l 372 1109 l 504 1049 l 389 805 z "},"–":{"ha":465,"x_min":34,"x_max":431,"o":"m 431 338 l 34 338 l 34 482 l 431 482 l 431 338 z "},"—":{"ha":811,"x_min":34,"x_max":777,"o":"m 777 338 l 34 338 l 34 482 l 777 482 l 777 338 z "},"‘":{"ha":262,"x_min":34,"x_max":229,"o":"m 229 819 l 35 819 l 35 947 q 34 979 34 963 l 34 991 q 71 1145 37 1079 l 199 1076 q 178 988 180 1041 q 179 962 178 974 l 229 962 l 229 819 z "},"’":{"ha":262,"x_min":34,"x_max":229,"o":"m 191 808 l 64 877 q 84 964 83 911 q 83 991 84 979 l 34 991 l 34 1135 l 227 1135 l 227 1005 q 229 973 229 989 l 229 961 q 191 808 226 873 z "},"‚":{"ha":262,"x_min":34,"x_max":229,"o":"m 191 -143 l 64 -74 q 84 14 83 -39 q 83 40 84 28 l 34 40 l 34 184 l 227 184 l 227 54 q 229 22 229 39 l 229 11 q 191 -143 226 -77 z "},"“":{"ha":471,"x_min":34,"x_max":437,"o":"m 229 819 l 35 819 l 35 947 q 34 979 34 963 l 34 991 q 71 1145 37 1079 l 198 1076 q 178 988 180 1041 q 179 962 178 974 l 229 962 l 229 819 m 437 819 l 243 819 l 243 947 q 242 979 242 963 l 242 991 q 279 1145 245 1079 l 407 1076 q 387 988 388 1041 q 387 962 387 974 l 437 962 l 437 819 z "},"”":{"ha":471,"x_min":34,"x_max":437,"o":"m 399 798 l 273 866 q 292 954 291 901 l 292 981 l 242 981 l 242 1124 l 435 1124 l 435 995 q 437 963 437 979 l 437 951 q 399 798 434 863 m 191 798 l 64 866 q 84 954 83 901 l 83 981 l 34 981 l 34 1124 l 227 1124 l 227 995 q 229 963 229 979 l 229 951 q 191 798 226 863 z "},"„":{"ha":471,"x_min":34,"x_max":437,"o":"m 399 -143 l 272 -74 q 292 14 291 -39 q 292 40 292 28 l 242 40 l 242 183 l 435 183 l 435 54 q 437 22 437 39 l 437 10 q 399 -143 434 -77 m 191 -143 l 64 -74 q 84 14 82 -39 l 83 40 l 34 40 l 34 183 l 227 183 l 227 54 q 229 21 229 38 q 191 -143 229 -72 z "},"†":{"ha":757,"x_min":34,"x_max":723,"o":"m 461 5 l 316 5 l 316 711 l 34 711 l 34 854 l 316 854 l 316 1076 l 461 1076 l 461 854 l 723 854 l 723 711 l 461 711 l 461 5 z "},"‡":{"ha":757,"x_min":34,"x_max":723,"o":"m 461 5 l 316 5 l 316 496 l 34 496 l 34 640 l 316 640 l 316 711 l 34 711 l 34 854 l 316 854 l 316 1076 l 461 1076 l 461 854 l 723 854 l 723 711 l 461 711 l 461 640 l 723 640 l 723 496 l 461 496 l 461 5 z "},"•":{"ha":248,"x_min":34,"x_max":214,"o":"m 124 321 q 60 347 87 321 q 34 410 34 373 q 60 473 34 446 q 124 500 86 500 q 188 473 161 500 q 214 410 214 447 q 188 347 214 373 q 124 321 161 321 z "},"…":{"ha":720,"x_min":34,"x_max":686,"o":"m 179 5 l 34 5 l 34 116 l 179 116 l 179 5 m 435 5 l 290 5 l 290 116 l 435 116 l 435 5 m 686 5 l 541 5 l 541 116 l 686 116 l 686 5 z "},"‹":{"ha":617,"x_min":34,"x_max":583,"o":"m 490 35 l 153 317 l 126 295 l 34 404 l 469 762 l 562 652 l 267 410 l 583 144 l 490 35 z "},"›":{"ha":618,"x_min":34,"x_max":584,"o":"m 127 35 l 34 144 l 351 410 l 56 652 l 149 762 l 584 404 l 492 295 l 465 317 l 127 35 z "},"⁄":{"ha":829,"x_min":34,"x_max":795,"o":"m 159 -73 l 34 -1 l 671 1074 l 795 1001 l 159 -73 z "},"∕":{"ha":829,"x_min":34,"x_max":795,"o":"m 159 -73 l 34 -1 l 671 1074 l 795 1001 l 159 -73 z "},"₣":{"ha":1072,"x_min":34,"x_max":1038,"o":"m 404 5 l 259 5 l 259 148 l 56 148 l 56 292 l 259 292 l 259 454 l 168 454 l 168 598 l 259 598 l 259 830 l 34 831 l 34 975 l 81 974 l 259 973 l 259 1076 l 404 1076 l 404 975 q 728 997 583 976 q 936 1074 873 1019 l 1038 972 q 882 888 980 918 q 661 846 784 859 q 404 831 537 833 l 404 598 l 726 598 l 726 454 l 404 454 l 404 292 l 726 292 l 726 148 l 404 148 l 404 5 z "},"₤":{"ha":766,"x_min":34,"x_max":732,"o":"m 732 5 l 111 5 q 78 12 94 5 q 48 39 59 22 q 38 76 38 56 q 46 109 38 92 q 168 315 107 227 l 34 315 l 34 458 l 195 458 l 180 488 l 34 488 l 34 631 l 123 631 q 89 797 89 736 q 112 946 89 882 q 176 1053 136 1010 q 266 1120 216 1096 q 393 1148 328 1148 q 583 1086 496 1148 q 679 975 642 1044 q 715 813 715 905 q 705 718 715 768 l 564 746 q 570 810 570 781 q 550 907 570 867 q 496 971 530 947 q 412 1004 458 999 l 393 1005 q 260 924 305 1005 q 233 796 233 876 q 276 631 237 739 l 510 631 l 510 488 l 343 488 q 364 458 354 471 l 510 458 l 510 315 l 340 315 l 310 269 q 233 148 270 210 l 732 148 l 732 5 z "},"₧":{"ha":1929,"x_min":34,"x_max":1895,"o":"m 286 5 l 140 5 l 140 338 q 37 336 92 338 l 34 479 q 105 480 71 480 l 140 481 l 140 1017 l 286 1017 l 286 480 l 433 479 q 522 480 481 479 q 660 510 610 482 q 730 613 710 538 q 750 832 750 687 q 748 945 750 884 l 400 945 l 400 1088 l 818 1088 l 818 1088 q 868 1068 847 1088 q 890 1019 888 1049 q 895 818 895 907 q 861 511 895 611 l 962 508 q 1047 514 1006 510 l 1047 1105 l 1192 1105 l 1192 551 q 1251 593 1228 568 l 1355 501 l 1355 612 l 1301 612 l 1301 755 l 1844 755 l 1844 612 l 1500 612 l 1500 439 l 1823 439 q 1874 419 1853 439 q 1895 368 1895 398 l 1895 80 q 1874 29 1895 50 q 1823 8 1853 8 l 1120 8 q 1068 29 1090 8 q 1047 80 1047 50 l 1047 370 q 964 366 1008 366 q 800 370 916 366 l 733 372 q 527 338 656 341 q 436 336 486 336 q 367 336 394 336 q 286 337 340 337 l 286 5 m 1750 151 l 1750 296 l 1428 296 q 1376 317 1397 296 q 1355 368 1355 338 l 1355 494 q 1192 399 1290 428 l 1192 151 l 1750 151 z "},"€":{"ha":904,"x_min":34,"x_max":870,"o":"m 870 20 l 676 20 q 436 27 532 20 q 278 58 340 33 q 180 136 216 83 q 139 233 151 176 q 125 368 127 290 l 34 368 l 34 511 l 125 511 l 127 600 l 34 600 l 34 743 l 130 743 l 130 844 q 128 1044 130 937 q 127 1051 127 1046 q 149 1102 127 1081 q 200 1123 170 1123 l 838 1123 l 838 980 l 274 980 l 275 873 l 274 743 l 564 743 l 564 600 l 271 600 l 270 511 l 564 511 l 564 368 l 269 368 q 299 216 271 257 q 403 173 322 182 q 642 163 484 163 q 831 164 815 163 l 870 164 l 870 20 z "},"№":{"ha":1689,"x_min":34,"x_max":1655,"o":"m 848 -23 q 788 342 803 94 q 552 564 671 456 q 391 714 437 671 q 262 212 350 441 q 150 -3 209 76 l 34 83 q 130 273 84 150 q 211 543 176 395 q 260 841 247 696 q 132 975 197 905 l 239 1070 l 264 1044 q 261 1069 263 1057 l 406 1086 q 412 972 412 1034 q 410 896 412 935 q 650 669 529 781 l 785 545 q 802 798 787 677 q 846 1008 817 919 l 983 963 q 942 753 955 878 q 929 496 929 628 q 930 404 929 450 q 1070 259 1001 334 l 963 163 l 948 180 q 981 33 961 81 l 848 -23 m 1636 4 l 1008 4 l 1008 147 l 1636 147 l 1636 4 m 1345 309 q 1380 314 1362 309 q 1462 370 1428 327 q 1508 482 1500 414 q 1510 510 1510 496 q 1497 593 1510 549 q 1450 686 1483 643 q 1244 800 1381 775 q 1204 713 1219 761 q 1181 566 1181 641 q 1241 361 1181 437 q 1336 309 1276 318 l 1345 309 m 1349 166 q 1322 168 1335 166 q 1129 270 1200 182 q 1036 564 1036 387 q 1066 757 1036 661 q 1090 819 1076 789 l 1081 949 q 1142 951 1112 951 l 1183 950 q 1263 1006 1220 984 l 1299 935 q 1433 884 1375 917 q 1565 773 1515 838 q 1637 633 1615 707 q 1655 511 1655 569 q 1653 468 1655 489 q 1575 279 1638 355 q 1420 176 1509 202 q 1349 166 1385 166 z "},"™":{"ha":1047,"x_min":34,"x_max":1013,"o":"m 288 747 l 142 747 l 142 968 l 34 968 l 34 1112 q 51 1112 48 1112 q 54 1111 53 1112 q 60 1111 54 1111 l 119 1111 q 254 1117 189 1111 q 363 1143 319 1122 l 429 1015 q 288 976 366 985 l 288 747 m 911 708 q 822 867 859 764 q 776 823 799 845 q 725 802 753 802 q 675 821 698 802 l 625 868 q 536 708 589 765 l 433 809 q 493 930 467 846 q 506 980 501 956 l 473 1010 l 513 1053 q 512 1068 513 1061 l 532 1071 l 573 1114 l 606 1083 l 655 1091 q 658 1048 658 1071 l 658 1034 l 724 972 l 789 1034 l 789 1048 q 791 1091 789 1071 l 840 1083 l 875 1117 l 922 1070 l 935 1068 l 933 1058 l 976 1015 l 941 981 q 954 930 945 956 q 1013 809 980 846 l 911 708 z "},"∂":{"ha":889,"x_min":34,"x_max":855,"o":"m 451 15 l 432 16 q 202 103 298 26 q 73 271 117 172 q 34 452 34 359 l 35 473 q 113 682 40 588 q 295 804 189 771 q 503 834 387 834 l 557 834 q 188 1018 425 966 l 219 1158 q 543 1028 413 1114 q 745 834 673 943 l 855 834 l 855 691 l 817 691 q 850 492 850 590 q 848 441 850 467 q 776 212 836 314 q 640 69 723 123 q 451 15 556 15 m 451 159 q 565 193 514 159 q 650 285 616 227 q 703 453 694 358 q 705 492 705 473 q 661 691 705 594 l 494 691 q 227 593 310 691 q 179 465 182 536 l 179 453 q 206 328 179 391 q 293 214 237 260 q 451 159 359 161 z "},"∆":{"ha":1222,"x_min":34,"x_max":1188,"o":"m 1175 0 l 34 0 l 34 144 l 97 144 l 613 1026 l 739 954 l 707 901 l 1150 144 l 1175 144 l 1175 100 l 1188 79 l 1175 72 l 1175 0 m 983 144 l 624 758 l 264 144 l 983 144 z "},"∏":{"ha":975,"x_min":34,"x_max":941,"o":"m 941 5 l 796 5 l 796 934 l 179 934 l 179 5 l 34 5 l 34 1077 l 941 1077 l 941 5 z "},"∑":{"ha":985,"x_min":34,"x_max":951,"o":"m 941 4 l 34 4 l 581 544 l 168 951 l 219 1074 l 951 1074 l 951 930 l 394 930 l 781 549 l 743 511 l 747 506 l 384 147 l 941 147 l 941 4 z "},"−":{"ha":743,"x_min":34,"x_max":709,"o":"m 709 338 l 34 338 l 34 482 l 709 482 l 709 338 z "},"√":{"ha":798,"x_min":34,"x_max":764,"o":"m 432 -3 l 315 425 q 94 255 211 309 l 34 385 q 170 480 101 415 q 280 625 238 545 l 415 612 l 488 345 l 622 1092 l 764 1067 l 573 3 l 432 -3 z "},"∞":{"ha":1200,"x_min":34,"x_max":1166,"o":"m 341 268 q 424 281 378 268 q 515 334 477 298 q 555 410 546 365 q 521 485 549 454 q 435 538 487 522 q 353 552 393 552 q 200 481 252 552 q 179 422 182 454 l 178 411 q 197 345 178 378 q 252 290 216 311 q 341 268 288 268 m 340 184 q 180 216 250 184 q 73 299 111 248 q 34 410 34 351 l 35 427 q 64 511 39 471 q 180 603 103 568 q 351 637 256 637 q 506 611 427 637 q 637 536 585 586 q 739 591 682 572 q 884 616 809 616 q 1017 595 954 616 q 1124 528 1082 573 q 1166 416 1166 483 l 1165 403 q 1086 255 1165 311 q 878 197 1004 197 q 726 224 799 197 q 629 282 671 245 q 491 208 572 232 q 340 184 411 184 m 880 280 q 935 288 908 280 q 997 329 973 300 q 1021 406 1021 358 l 1021 416 q 999 485 1021 458 q 943 524 977 511 q 887 532 917 532 q 745 479 801 531 q 703 408 715 451 q 740 337 712 366 q 805 295 768 309 q 880 280 842 281 z "},"∫":{"ha":498,"x_min":34,"x_max":464,"o":"m 90 16 q 34 19 64 16 l 49 161 q 76 159 63 159 q 163 188 137 159 q 194 264 190 217 q 196 309 196 286 q 189 416 196 359 q 173 534 182 474 q 156 661 163 598 q 149 781 149 724 q 185 966 149 892 q 406 1081 243 1081 q 464 1078 433 1081 l 449 935 q 418 937 433 937 q 327 907 355 937 q 296 827 300 877 q 294 781 294 805 q 300 677 294 732 q 315 565 307 623 q 334 431 326 497 q 341 313 341 370 q 304 127 341 201 q 90 16 250 16 z "},"≈":{"ha":838,"x_min":34,"x_max":804,"o":"m 618 432 l 595 433 q 404 473 505 441 q 237 507 309 500 l 231 507 q 195 496 209 507 q 178 458 180 486 l 34 464 q 63 576 38 534 q 129 634 87 617 q 223 651 170 651 q 432 613 313 649 l 441 610 q 604 576 533 583 l 611 576 q 659 618 656 576 l 804 610 q 775 504 800 543 q 710 448 751 465 q 618 432 670 432 m 620 187 l 595 188 q 404 227 505 197 q 237 262 309 255 l 231 262 q 195 252 209 262 q 178 212 180 241 l 34 219 q 63 331 38 290 q 129 389 87 372 q 223 406 170 406 q 432 368 313 404 l 450 363 q 604 330 536 337 l 610 330 q 644 339 631 330 q 659 373 657 349 l 804 365 q 775 259 800 298 q 711 203 751 220 q 620 187 671 187 z "},"≤":{"ha":768,"x_min":34,"x_max":734,"o":"m 490 178 l 153 459 l 127 437 l 34 547 l 470 904 l 562 794 l 267 552 l 584 287 l 490 178 m 734 0 l 59 0 l 59 144 l 734 144 l 734 0 z "},"≥":{"ha":768,"x_min":34,"x_max":734,"o":"m 278 178 l 184 287 l 502 552 l 206 794 l 298 904 l 734 547 l 642 437 l 615 459 l 278 178 m 709 0 l 34 0 l 34 144 l 709 144 l 709 0 z "}}}
